<svg width="651" height="198" viewBox="0 0 651 198" fill="none" xmlns="http://www.w3.org/2000/svg">
<path d="M42.4519 108.22C37.247 108.22 32.2862 107.407 27.5693 105.78C22.8524 104.154 18.7455 101.876 15.2485 98.9488C11.7515 96.0211 9.18977 92.6461 7.56327 88.8238C6.75001 87.1159 6.75001 85.5301 7.56327 84.0662C8.45785 82.6024 9.9217 81.6671 11.9548 81.2605C13.4187 80.9352 14.8419 81.1792 16.2244 81.9924C17.6883 82.7244 18.7862 83.8629 19.5181 85.4081C20.494 87.4412 22.0799 89.3117 24.2756 91.0196C26.5528 92.7274 29.2772 94.1099 32.4488 95.1671C35.6205 96.2244 38.9549 96.753 42.4519 96.753C46.3555 96.753 49.9338 96.1431 53.1868 94.9232C56.5212 93.7033 59.2049 91.9548 61.2381 89.6777C63.2712 87.3192 64.2878 84.4322 64.2878 81.0165C64.2878 76.7063 62.5799 72.8433 59.1643 69.4276C55.8299 66.012 50.2998 63.8975 42.5739 63.0843C32.4895 62.1084 24.5603 59.14 18.7862 54.1791C13.0121 49.2183 10.125 43.0782 10.125 35.7589C10.125 30.3914 11.6295 25.8372 14.6386 22.0962C17.6476 18.3553 21.7139 15.5089 26.8374 13.5571C32.0422 11.6053 37.8163 10.6294 44.1597 10.6294C49.1206 10.6294 53.4308 11.3206 57.0905 12.7032C60.8314 14.0857 64.0844 15.9968 66.8495 18.4366C69.6146 20.8764 72.0137 23.7634 74.0468 27.0978C75.1854 28.8869 75.6327 30.5948 75.3887 32.2213C75.226 33.7664 74.4534 34.9863 73.0709 35.8809C71.5257 36.8568 69.8585 37.0601 68.0694 36.4909C66.2802 35.9216 64.9384 34.8643 64.0438 33.3192C62.7426 30.9607 61.1567 28.9682 59.2862 27.3417C57.4158 25.7152 55.22 24.4547 52.6989 23.5601C50.1778 22.5842 47.2094 22.0962 43.7937 22.0962C37.7757 22.0149 32.7335 23.1535 28.6672 25.5119C24.6009 27.789 22.5678 31.3267 22.5678 36.1249C22.5678 38.5647 23.1777 40.9231 24.3976 43.2002C25.6988 45.396 28.0166 47.3071 31.351 48.9336C34.7666 50.5601 39.6461 51.6987 45.9895 52.3493C55.6673 53.3252 63.1899 56.2936 68.5573 61.2544C74.0061 66.134 76.7305 72.5993 76.7305 80.6506C76.7305 85.2861 75.7546 89.3117 73.8028 92.7274C71.9323 96.1431 69.3706 99.0301 66.1176 101.389C62.9459 103.666 59.2862 105.373 55.1386 106.512C51.0724 107.651 46.8434 108.22 42.4519 108.22ZM110.335 107C109.034 107 107.814 106.634 106.676 105.902C105.619 105.089 104.887 104.113 104.48 102.974L86.4257 48.8117C85.7751 46.2906 85.7751 44.2574 86.4257 42.7122C87.1577 41.0857 88.7029 40.2725 91.0613 40.2725C92.6065 40.2725 93.867 40.7198 94.8429 41.6144C95.9002 42.4276 96.7541 43.8508 97.4047 45.8839L112.775 93.9473H108.506L123.022 44.908C123.429 43.5255 124.12 42.4276 125.096 41.6144C126.072 40.7198 127.414 40.2725 129.122 40.2725C130.748 40.2725 132.049 40.7198 133.025 41.6144C134.082 42.4276 134.774 43.5255 135.099 44.908L146.932 91.0196H145.102L159.497 45.8839C160.635 42.143 162.75 40.2725 165.84 40.2725C168.117 40.2725 169.662 41.0857 170.476 42.7122C171.289 44.2574 171.248 46.2906 170.354 48.8117L152.299 102.974C151.974 104.113 151.283 105.089 150.226 105.902C149.168 106.634 147.948 107 146.566 107C145.265 107 144.045 106.634 142.906 105.902C141.768 105.089 141.036 104.113 140.71 102.974L128.146 56.4969H129.366L116.191 102.974C115.866 104.113 115.134 105.089 113.995 105.902C112.938 106.634 111.718 107 110.335 107ZM209.147 107.488C203.21 107.488 197.883 106.024 193.166 103.096C188.449 100.087 184.708 96.0617 181.943 91.0196C179.26 85.8961 177.918 80.1219 177.918 73.6972C177.918 67.2725 179.382 61.4984 182.309 56.3749C185.318 51.2514 189.344 47.2258 194.386 44.2981C199.51 41.2891 205.243 39.7845 211.587 39.7845C217.93 39.7845 223.623 41.2891 228.665 44.2981C233.707 47.2258 237.692 51.2514 240.62 56.3749C243.629 61.4984 245.133 67.2725 245.133 73.6972H240.376C240.376 80.1219 238.993 85.8961 236.228 91.0196C233.544 96.0617 229.844 100.087 225.127 103.096C220.41 106.024 215.084 107.488 209.147 107.488ZM211.587 96.509C215.734 96.509 219.434 95.5331 222.687 93.5813C225.94 91.5482 228.502 88.8238 230.373 85.4081C232.243 81.9111 233.178 78.0075 233.178 73.6972C233.178 69.3057 232.243 65.402 230.373 61.9864C228.502 58.4894 225.94 55.765 222.687 53.8132C219.434 51.78 215.734 50.7635 211.587 50.7635C207.52 50.7635 203.82 51.78 200.486 53.8132C197.233 55.765 194.63 58.4894 192.678 61.9864C190.808 65.402 189.873 69.3057 189.873 73.6972C189.873 78.0075 190.808 81.9111 192.678 85.4081C194.63 88.8238 197.233 91.5482 200.486 93.5813C203.82 95.5331 207.52 96.509 211.587 96.509ZM238.912 107.122C237.123 107.122 235.618 106.553 234.398 105.414C233.26 104.194 232.69 102.69 232.69 100.901V82.2364L235.008 69.3057L245.133 73.6972V100.901C245.133 102.69 244.523 104.194 243.303 105.414C242.165 106.553 240.701 107.122 238.912 107.122ZM287.927 107.488C282.234 107.488 276.948 106.634 272.069 104.926C267.271 103.137 263.53 100.901 260.846 98.2169C259.626 96.9156 259.097 95.4518 259.26 93.8253C259.504 92.1174 260.317 90.7349 261.7 89.6777C263.326 88.3765 264.912 87.8479 266.457 88.0918C268.084 88.2545 269.466 88.9458 270.605 90.1656C271.987 91.7108 274.183 93.1747 277.192 94.5572C280.283 95.8584 283.698 96.509 287.439 96.509C292.156 96.509 295.735 95.7364 298.174 94.1912C300.695 92.6461 301.997 90.6536 302.078 88.2138C302.159 85.7741 300.98 83.6596 298.54 81.8704C296.182 80.0813 291.831 78.6174 285.488 77.4789C277.274 75.8524 271.296 73.4126 267.555 70.1596C263.896 66.9066 262.066 62.9216 262.066 58.2047C262.066 54.0571 263.286 50.6415 265.725 47.9577C268.165 45.1927 271.296 43.1595 275.119 41.8583C278.941 40.4758 282.926 39.7845 287.073 39.7845C292.441 39.7845 297.198 40.6384 301.346 42.3463C305.494 44.0541 308.787 46.4126 311.227 49.4216C312.366 50.7228 312.894 52.1053 312.813 53.5692C312.732 54.9517 312.04 56.1309 310.739 57.1068C309.438 58.0014 307.893 58.2861 306.104 57.9608C304.314 57.6355 302.81 56.9035 301.59 55.765C299.557 53.8132 297.361 52.4713 295.003 51.7394C292.644 51.0074 289.92 50.6415 286.829 50.6415C283.251 50.6415 280.201 51.2514 277.68 52.4713C275.241 53.6912 274.021 55.4803 274.021 57.8388C274.021 59.3026 274.387 60.6445 275.119 61.8644C275.932 63.0029 277.477 64.0602 279.754 65.0361C282.031 65.9307 285.366 66.8252 289.757 67.7198C295.857 68.9397 300.655 70.4849 304.152 72.3554C307.73 74.2259 310.292 76.4216 311.837 78.9427C313.382 81.3825 314.155 84.2289 314.155 87.4819C314.155 91.2229 313.138 94.5979 311.105 97.6069C309.153 100.616 306.225 103.015 302.322 104.804C298.5 106.593 293.701 107.488 287.927 107.488ZM354.163 107C350.097 107 346.437 105.983 343.184 103.95C339.931 101.836 337.369 98.9894 335.499 95.4111C333.628 91.8328 332.693 87.8072 332.693 83.3343V25.146C332.693 23.3568 333.262 21.8929 334.401 20.7544C335.539 19.6158 337.003 19.0465 338.793 19.0465C340.582 19.0465 342.046 19.6158 343.184 20.7544C344.323 21.8929 344.892 23.3568 344.892 25.146V83.3343C344.892 86.5873 345.787 89.3117 347.576 91.5075C349.365 93.7033 351.561 94.8012 354.163 94.8012H358.311C359.774 94.8012 360.994 95.3705 361.97 96.509C363.027 97.6476 363.556 99.1114 363.556 100.901C363.556 102.69 362.865 104.154 361.482 105.292C360.181 106.431 358.473 107 356.359 107H354.163ZM327.082 53.2032C325.374 53.2032 323.991 52.7153 322.934 51.7394C321.877 50.7635 321.348 49.5436 321.348 48.0797C321.348 46.4532 321.877 45.152 322.934 44.1761C323.991 43.2002 325.374 42.7122 327.082 42.7122H355.261C356.969 42.7122 358.351 43.2002 359.409 44.1761C360.466 45.152 360.994 46.4532 360.994 48.0797C360.994 49.5436 360.466 50.7635 359.409 51.7394C358.351 52.7153 356.969 53.2032 355.261 53.2032H327.082ZM385.071 82.7244C383.282 82.7244 381.777 82.1551 380.557 81.0165C379.419 79.7966 378.849 78.2921 378.849 76.503V17.9487C378.849 16.0782 379.419 14.5736 380.557 13.4351C381.777 12.2965 383.282 11.7273 385.071 11.7273C386.941 11.7273 388.446 12.2965 389.584 13.4351C390.723 14.5736 391.292 16.0782 391.292 17.9487V76.503C391.292 78.2921 390.723 79.7966 389.584 81.0165C388.446 82.1551 386.941 82.7244 385.071 82.7244ZM435.208 107.122C433.419 107.122 431.914 106.553 430.694 105.414C429.556 104.194 428.987 102.69 428.987 100.901V70.8915C428.987 66.256 428.133 62.4743 426.425 59.5466C424.717 56.6189 422.399 54.4638 419.471 53.0812C416.625 51.6174 413.331 50.8855 409.59 50.8855C406.175 50.8855 403.084 51.5767 400.319 52.9592C397.554 54.3418 395.358 56.2123 393.732 58.5707C392.105 60.8478 391.292 63.4909 391.292 66.4999H383.607C383.607 61.3764 384.827 56.8222 387.267 52.8373C389.788 48.771 393.203 45.5586 397.514 43.2002C401.824 40.8418 406.663 39.6625 412.03 39.6625C417.642 39.6625 422.643 40.8824 427.035 43.3222C431.508 45.6806 435.005 49.1776 437.526 53.8132C440.128 58.4487 441.429 64.1415 441.429 70.8915V100.901C441.429 102.69 440.819 104.194 439.6 105.414C438.461 106.553 436.997 107.122 435.208 107.122ZM385.071 107.122C383.282 107.122 381.777 106.553 380.557 105.414C379.419 104.194 378.849 102.69 378.849 100.901V46.4939C378.849 44.6234 379.419 43.1189 380.557 41.9803C381.777 40.8418 383.282 40.2725 385.071 40.2725C386.941 40.2725 388.446 40.8418 389.584 41.9803C390.723 43.1189 391.292 44.6234 391.292 46.4939V100.901C391.292 102.69 390.723 104.194 389.584 105.414C388.446 106.553 386.941 107.122 385.071 107.122ZM597.15 107.488C591.213 107.488 585.887 106.024 581.17 103.096C576.453 100.087 572.712 96.0617 569.947 91.0196C567.263 85.8961 565.921 80.1219 565.921 73.6972C565.921 67.2725 567.385 61.4984 570.313 56.3749C573.322 51.2514 577.347 47.2258 582.39 44.2981C587.513 41.2891 593.246 39.7845 599.59 39.7845C605.933 39.7845 611.626 41.2891 616.668 44.2981C621.71 47.2258 625.695 51.2514 628.623 56.3749C631.632 61.4984 633.137 67.2725 633.137 73.6972H628.379C628.379 80.1219 626.997 85.8961 624.231 91.0196C621.548 96.0617 617.847 100.087 613.131 103.096C608.414 106.024 603.087 107.488 597.15 107.488ZM599.59 96.509C603.737 96.509 607.438 95.5331 610.691 93.5813C613.944 91.5482 616.506 88.8238 618.376 85.4081C620.247 81.9111 621.182 78.0075 621.182 73.6972C621.182 69.3057 620.247 65.402 618.376 61.9864C616.506 58.4894 613.944 55.765 610.691 53.8132C607.438 51.78 603.737 50.7635 599.59 50.7635C595.524 50.7635 591.823 51.78 588.489 53.8132C585.236 55.765 582.633 58.4894 580.682 61.9864C578.811 65.402 577.876 69.3057 577.876 73.6972C577.876 78.0075 578.811 81.9111 580.682 85.4081C582.633 88.8238 585.236 91.5482 588.489 93.5813C591.823 95.5331 595.524 96.509 599.59 96.509ZM626.915 107.122C625.126 107.122 623.622 106.553 622.402 105.414C621.263 104.194 620.694 102.69 620.694 100.901V82.2364L623.012 69.3057L633.137 73.6972V100.901C633.137 102.69 632.527 104.194 631.307 105.414C630.168 106.553 628.704 107.122 626.915 107.122Z" fill="white"/>
<path d="M481.156 27.4381C462.208 30.9915 448.934 67.2359 500.103 112.719" stroke="white" stroke-width="7.10675"/>
<path d="M532.083 27.4381C551.03 30.9915 564.305 67.2359 513.136 112.719" stroke="white" stroke-width="7.10675"/>
<path d="M474.049 84.2921C474.049 87.8455 502.476 116.272 506.029 116.272C509.583 116.272 538.01 87.8455 538.01 84.2921" stroke="#1E1E1E" stroke-width="9.94944" stroke-linecap="round"/>
<path d="M506.029 112.719C502.476 149.437 463.389 190.893 392.321 134.039C384.03 129.302 363.894 119.826 356.788 166.02" stroke="#1E1E1E" stroke-width="10.6601"/>
<circle cx="353.234" cy="180.233" r="14.2135" fill="white" stroke="black" stroke-width="7.10675"/>
<circle cx="484.709" cy="27.4381" r="7.10675" fill="#1E1E1E"/>
<circle cx="527.349" cy="27.4381" r="7.10675" fill="#1E1E1E"/>
<path fill-rule="evenodd" clip-rule="evenodd" d="M210.938 101.403C226.377 101.403 238.893 88.887 238.893 73.4476C238.893 58.0081 226.377 45.492 210.938 45.492C195.498 45.492 182.982 58.0081 182.982 73.4476C182.982 88.887 195.498 101.403 210.938 101.403ZM201.456 58.504C205.172 58.504 208.471 60.4129 210.543 63.3642C212.615 60.4129 215.914 58.504 219.629 58.504C225.902 58.504 230.988 63.9452 230.988 70.6572C230.988 74.411 229.397 77.7672 226.898 79.9966C226.8 80.1815 226.673 80.3588 226.514 80.5237L212.18 95.4205C211.286 96.3492 209.8 96.3492 208.906 95.4205L194.571 80.5237C194.413 80.3588 194.286 80.1813 194.188 79.9963C191.689 77.767 190.098 74.4108 190.098 70.6572C190.098 63.9452 195.183 58.504 201.456 58.504Z" fill="white"/>
</svg>
