<svg width="70" height="70" viewBox="0 0 70 70" fill="none" xmlns="http://www.w3.org/2000/svg">
<path d="M14.7615 61.3815L16.5248 58.9544L16.5248 58.9544L14.7615 61.3815ZM11.5352 58.1552L13.9622 56.3918L11.5352 58.1552ZM58.4648 58.1552L60.8919 59.9186L58.4648 58.1552ZM55.2385 61.3815L53.4752 58.9544L53.4752 58.9544L55.2385 61.3815ZM55.2385 14.4518L53.4752 16.8789L53.4752 16.8789L55.2385 14.4518ZM58.4648 17.6781L56.0378 19.4415L56.0378 19.4415L58.4648 17.6781ZM14.7615 14.4518L16.5248 16.8789L16.5248 16.8789L14.7615 14.4518ZM11.5352 17.6781L13.9622 19.4415L13.9622 19.4415L11.5352 17.6781ZM56.052 46.8462L55.5827 43.8831L55.5827 43.8831L56.052 46.8462ZM43.9295 58.9687L40.9665 58.4994L40.9665 58.4994L43.9295 58.9687ZM26.25 37.8333C24.5931 37.8333 23.25 39.1765 23.25 40.8333C23.25 42.4902 24.5931 43.8333 26.25 43.8333V37.8333ZM35 43.8333C36.6569 43.8333 38 42.4902 38 40.8333C38 39.1765 36.6569 37.8333 35 37.8333V43.8333ZM40.75 14.5833C40.75 16.2402 42.0931 17.5833 43.75 17.5833C45.4069 17.5833 46.75 16.2402 46.75 14.5833H40.75ZM46.75 5.83333C46.75 4.17648 45.4069 2.83333 43.75 2.83333C42.0931 2.83333 40.75 4.17648 40.75 5.83333H46.75ZM23.25 14.5833C23.25 16.2402 24.5931 17.5833 26.25 17.5833C27.9069 17.5833 29.25 16.2402 29.25 14.5833H23.25ZM29.25 5.83333C29.25 4.17648 27.9069 2.83333 26.25 2.83333C24.5931 2.83333 23.25 4.17648 23.25 5.83333H29.25ZM8.83437 29.1667L5.83613 29.0639L8.83437 29.1667ZM61.1656 29.1667L64.1639 29.0639L61.1656 29.1667ZM35 61.1667C29.4648 61.1667 25.5544 61.1625 22.5401 60.836C19.582 60.5155 17.8449 59.9135 16.5248 58.9544L12.9981 63.8085C15.5115 65.6346 18.4253 66.4253 21.8939 66.8011C25.3063 67.1708 29.5985 67.1667 35 67.1667V61.1667ZM5.75 37.9167C5.75 43.3182 5.74588 47.6103 6.1156 51.0228C6.4914 54.4914 7.28205 57.4052 9.10812 59.9186L13.9622 56.3918C13.0031 55.0718 12.4012 53.3346 12.0807 50.3765C11.7541 47.3623 11.75 43.4518 11.75 37.9167H5.75ZM16.5248 58.9544C15.5415 58.24 14.6767 57.3752 13.9622 56.3918L9.10812 59.9186C10.1926 61.4113 11.5054 62.724 12.9981 63.8085L16.5248 58.9544ZM56.0378 56.3918C55.3233 57.3752 54.4585 58.24 53.4752 58.9544L57.0019 63.8085C58.4946 62.724 59.8074 61.4113 60.8919 59.9186L56.0378 56.3918ZM53.4752 16.8789C54.4585 17.5933 55.3233 18.4581 56.0378 19.4415L60.8919 15.9148C59.8074 14.422 58.4946 13.1093 57.0019 12.0248L53.4752 16.8789ZM12.9981 12.0248C11.5054 13.1093 10.1927 14.422 9.10812 15.9148L13.9622 19.4415C14.6767 18.4581 15.5415 17.5933 16.5248 16.8789L12.9981 12.0248ZM55.5827 43.8831C48.0589 45.0748 42.1581 50.9756 40.9665 58.4994L46.8926 59.438C47.6776 54.4815 51.5649 50.5943 56.5213 49.8093L55.5827 43.8831ZM26.25 43.8333H35V37.8333H26.25V43.8333ZM61.1656 43.6667C58.6221 43.6667 56.9954 43.6594 55.5827 43.8831L56.5213 49.8093C57.3521 49.6777 58.4022 49.6667 61.1656 49.6667L61.1656 43.6667ZM58.25 37.9167C58.25 41.3426 58.2496 44.1636 58.1674 46.5639L64.1639 46.7694C64.2504 44.2444 64.25 41.3094 64.25 37.9167H58.25ZM58.1674 46.5639C57.9824 51.9641 57.3762 54.5496 56.0378 56.3918L60.8919 59.9186C63.3873 56.4839 63.9763 52.2436 64.1639 46.7694L58.1674 46.5639ZM46.75 64.0823C46.75 61.3189 46.761 60.2688 46.8926 59.438L40.9665 58.4994C40.7427 59.9121 40.75 61.5387 40.75 64.0823L46.75 64.0823ZM35 67.1667C38.3928 67.1667 41.3277 67.167 43.8527 67.0805L43.6473 61.084C41.2469 61.1663 38.426 61.1667 35 61.1667V67.1667ZM43.8527 67.0805C49.327 66.893 53.5672 66.304 57.0019 63.8085L53.4752 58.9544C51.633 60.2929 49.0475 60.899 43.6473 61.084L43.8527 67.0805ZM11.75 37.9167C11.75 34.4907 11.7504 31.6697 11.8326 29.2694L5.83613 29.0639C5.74962 31.5889 5.75 34.5239 5.75 37.9167H11.75ZM11.8326 29.2694C12.0176 23.8692 12.6238 21.2837 13.9622 19.4415L9.10812 15.9148C6.6127 19.3494 6.02369 23.5897 5.83613 29.0639L11.8326 29.2694ZM8.83437 32.1667H61.1656V26.1667H8.83437V32.1667ZM64.25 37.9167C64.25 34.5239 64.2504 31.5889 64.1639 29.0639L58.1674 29.2694C58.2496 31.6697 58.25 34.4907 58.25 37.9167H64.25ZM64.1639 29.0639C63.9763 23.5897 63.3873 19.3494 60.8919 15.9148L56.0378 19.4415C57.3762 21.2837 57.9824 23.8692 58.1674 29.2694L64.1639 29.0639ZM46.75 14.5833V11.751H40.75V14.5833H46.75ZM46.75 11.751V5.83333H40.75V11.751H46.75ZM35 14.6667C38.426 14.6667 41.2469 14.667 43.6473 14.7493L43.8527 8.7528C41.3277 8.66629 38.3928 8.66667 35 8.66667V14.6667ZM43.6473 14.7493C49.0474 14.9343 51.633 15.5404 53.4752 16.8789L57.0019 12.0248C53.5672 9.52936 49.327 8.94035 43.8527 8.7528L43.6473 14.7493ZM29.25 14.5833V11.751H23.25V14.5833H29.25ZM29.25 11.751V5.83333H23.25V11.751H29.25ZM35 8.66667C31.6072 8.66667 28.6723 8.66629 26.1473 8.7528L26.3527 14.7493C28.7531 14.667 31.574 14.6667 35 14.6667V8.66667ZM26.1473 8.7528C20.673 8.94035 16.4328 9.52936 12.9981 12.0248L16.5248 16.8789C18.367 15.5404 20.9526 14.9343 26.3527 14.7493L26.1473 8.7528Z" fill="#BCDBFF"/>
</svg>
