<svg width="101" height="74" viewBox="0 0 101 74" fill="none" xmlns="http://www.w3.org/2000/svg">
<path d="M41.0371 43.6218L40.7927 45.165L40.7927 45.165L41.0371 43.6218ZM32.3782 34.9629L33.9215 34.7184L33.9215 34.7184L32.3782 34.9629ZM69.6218 34.9629L71.165 35.2073L71.165 35.2073L69.6218 34.9629ZM60.9629 43.6218L61.2073 45.165L61.2073 45.165L60.9629 43.6218ZM68.9168 21.9783C68.3985 21.2883 67.419 21.1491 66.729 21.6673C66.039 22.1856 65.8998 23.1651 66.4181 23.8551L68.9168 21.9783ZM35.5819 23.8551C36.1002 23.1651 35.961 22.1856 35.271 21.6673C34.581 21.1491 33.6015 21.2883 33.0832 21.9783L35.5819 23.8551ZM52.5625 6.25C52.5625 5.38706 51.8629 4.6875 51 4.6875C50.1371 4.6875 49.4375 5.38706 49.4375 6.25H52.5625ZM43.891 26.1126C43.3549 25.4364 42.3721 25.3228 41.6959 25.859C41.0197 26.3951 40.9062 27.3779 41.4423 28.0541L43.891 26.1126ZM45.5788 30.7562L44.3545 31.727L44.3545 31.727L45.5788 30.7562ZM56.4212 30.7562L55.1968 29.7854L55.1968 29.7854L56.4212 30.7562ZM60.5577 28.0541C61.0938 27.3779 60.9803 26.3951 60.3041 25.859C59.6279 25.3228 58.6451 25.4364 58.109 26.1126L60.5577 28.0541ZM50.4778 35.3752L50.2319 36.9183L50.2319 36.9183L50.4778 35.3752ZM51.5222 35.3752L51.7681 36.9183L51.7681 36.9183L51.5222 35.3752ZM68.1875 29.1667V31.25H71.3125V29.1667H68.1875ZM57.25 42.1875H44.75V45.3125H57.25V42.1875ZM33.8125 31.25V29.1667H30.6875V31.25H33.8125ZM44.75 42.1875C42.7549 42.1875 41.9392 42.1826 41.2816 42.0785L40.7927 45.165C41.7545 45.3173 42.8743 45.3125 44.75 45.3125V42.1875ZM30.6875 31.25C30.6875 33.1257 30.6827 34.2455 30.835 35.2073L33.9215 34.7184C33.8173 34.0608 33.8125 33.2451 33.8125 31.25H30.6875ZM41.2816 42.0785C37.4929 41.4784 34.5216 38.5071 33.9215 34.7184L30.835 35.2073C31.6468 40.3331 35.6669 44.3532 40.7927 45.165L41.2816 42.0785ZM68.1875 31.25C68.1875 33.2451 68.1826 34.0608 68.0785 34.7184L71.165 35.2073C71.3173 34.2455 71.3125 33.1257 71.3125 31.25H68.1875ZM57.25 45.3125C59.1257 45.3125 60.2455 45.3173 61.2073 45.165L60.7184 42.0785C60.0608 42.1826 59.2451 42.1875 57.25 42.1875V45.3125ZM68.0785 34.7184C67.4784 38.5071 64.5071 41.4784 60.7184 42.0785L61.2073 45.165C66.3331 44.3532 70.3532 40.3331 71.165 35.2073L68.0785 34.7184ZM71.3125 29.1667C71.3125 26.4717 70.4207 23.9805 68.9168 21.9783L66.4181 23.8551C67.5295 25.3347 68.1875 27.1716 68.1875 29.1667H71.3125ZM33.8125 29.1667C33.8125 27.1716 34.4705 25.3347 35.5819 23.8551L33.0832 21.9783C31.5793 23.9805 30.6875 26.4717 30.6875 29.1667H33.8125ZM49.4375 6.25V33.3333H52.5625V6.25H49.4375ZM41.4423 28.0541L44.3545 31.727L46.8032 29.7854L43.891 26.1126L41.4423 28.0541ZM57.6455 31.727L60.5577 28.0541L58.109 26.1126L55.1968 29.7854L57.6455 31.727ZM44.3545 31.727C45.492 33.1616 46.4266 34.3441 47.2615 35.1823C48.1034 36.0274 49.0378 36.728 50.2319 36.9183L50.7236 33.8322C50.5024 33.7969 50.1486 33.6525 49.4755 32.9768C48.7954 32.2941 47.9881 31.2798 46.8032 29.7854L44.3545 31.727ZM55.1968 29.7854C54.0119 31.2798 53.2046 32.2941 52.5245 32.9768C51.8514 33.6525 51.4976 33.7969 51.2764 33.8322L51.7681 36.9183C52.9622 36.728 53.8966 36.0274 54.7385 35.1822C55.5734 34.3441 56.508 33.1616 57.6455 31.727L55.1968 29.7854ZM50.2319 36.9183C50.4863 36.9588 50.7429 36.9792 51 36.9792L51 33.8542C50.9082 33.8542 50.816 33.8469 50.7236 33.8322L50.2319 36.9183ZM51 36.9792C51.2571 36.9792 51.5137 36.9588 51.7681 36.9183L51.2764 33.8322C51.184 33.8469 51.0918 33.8542 51 33.8542L51 36.9792ZM49.4375 33.3333V35.4167H52.5625V33.3333H49.4375Z" fill="black"/>
</svg>
