<svg width="70" height="70" viewBox="0 0 70 70" fill="none" xmlns="http://www.w3.org/2000/svg">
<path d="M8.0687 46.1406L10.9219 45.2136L10.9219 45.2136L8.0687 46.1406ZM4.82973 28.1504L7.71497 28.9722L4.82973 28.1504ZM18.3549 14.4828L16.5916 12.0558L16.5916 12.0558L18.3549 14.4828ZM5.16015 27.1335L7.97741 28.1645L5.16015 27.1335ZM16.8878 63.2274L15.2146 65.7175L15.2146 65.7175L16.8878 63.2274ZM16.0227 62.5989L14.1716 64.9597L14.1716 64.9597L16.0227 62.5989ZM61.9282 46.1406L59.075 45.2136L61.9282 46.1406ZM53.9741 62.5989L55.8253 64.9597L55.8253 64.9597L53.9741 62.5989ZM53.1091 63.2274L54.7823 65.7175L53.1091 63.2274ZM51.6419 14.4828L53.4053 12.0558L53.4053 12.0558L51.6419 14.4828ZM64.8367 27.1335L62.0194 28.1645L64.8367 27.1335ZM65.1671 28.1504L62.2819 28.9722L65.1671 28.1504ZM35.5331 5.84311L35.4231 8.84109L35.5331 5.84311ZM34.4638 5.84311L34.5738 8.84109L34.4638 5.84311ZM31.9984 57.8073C31.9984 59.4642 33.3416 60.8073 34.9984 60.8073C36.6553 60.8073 37.9984 59.4642 37.9984 57.8073H31.9984ZM37.9984 51.974C37.9984 50.3171 36.6553 48.974 34.9984 48.974C33.3416 48.974 31.9984 50.3171 31.9984 51.974H37.9984ZM46.6651 65.3518L47.0259 68.33L46.6651 65.3518ZM10.9219 45.2136C9.41621 40.5797 8.36447 37.3296 7.81482 34.7047C7.27959 32.1486 7.28818 30.4705 7.71497 28.9722L1.94449 27.3285C1.15373 30.1047 1.2963 32.8499 1.94219 35.9344C2.57365 38.95 3.75017 42.5578 5.21553 47.0677L10.9219 45.2136ZM16.5916 12.0558C12.7552 14.8431 9.68279 17.0703 7.39939 19.1388C5.06382 21.2546 3.33493 23.3917 2.34288 26.1024L7.97741 28.1645C8.51284 26.7014 9.49223 25.3388 11.4276 23.5855C13.4152 21.785 16.1764 19.7738 20.1183 16.9099L16.5916 12.0558ZM7.71497 28.9722C7.79255 28.6999 7.88009 28.4304 7.97741 28.1645L2.34288 26.1024C2.19514 26.5061 2.06226 26.9151 1.94449 27.3285L7.71497 28.9722ZM5.21553 47.0677C6.68089 51.5776 7.84967 55.1879 9.11134 57.9988C10.4018 60.8738 11.9 63.1785 14.1716 64.9597L17.8739 60.2381C16.6479 59.2768 15.6546 57.9243 14.5852 55.5418C13.487 53.0951 12.4275 49.8475 10.9219 45.2136L5.21553 47.0677ZM18.561 60.7373C18.3259 60.5794 18.0967 60.4129 17.8739 60.2381L14.1716 64.9597C14.5099 65.2249 14.8578 65.4777 15.2146 65.7175L18.561 60.7373ZM59.075 45.2136C57.5693 49.8475 56.5099 53.0951 55.4116 55.5418C54.3423 57.9243 53.349 59.2768 52.123 60.2381L55.8253 64.9597C58.0968 63.1785 59.595 60.8738 60.8855 57.9988C62.1472 55.1879 63.316 51.5776 64.7813 47.0677L59.075 45.2136ZM52.123 60.2381C51.9001 60.4129 51.6709 60.5794 51.4359 60.7373L54.7823 65.7175C55.1391 65.4777 55.487 65.2249 55.8253 64.9597L52.123 60.2381ZM49.8786 16.9099C53.8204 19.7738 56.5816 21.785 58.5692 23.5855C60.5046 25.3388 61.484 26.7014 62.0194 28.1645L67.654 26.1024C66.6619 23.3917 64.933 21.2546 62.5975 19.1388C60.3141 17.0703 57.2416 14.8431 53.4053 12.0558L49.8786 16.9099ZM64.7813 47.0677C66.2467 42.5578 67.4232 38.95 68.0547 35.9344C68.7006 32.8499 68.8431 30.1047 68.0524 27.3285L62.2819 28.9722C62.7087 30.4705 62.7173 32.1486 62.182 34.7047C61.6324 37.3296 60.5806 40.5797 59.075 45.2136L64.7813 47.0677ZM62.0194 28.1645C62.1168 28.4304 62.2043 28.6998 62.2819 28.9722L68.0524 27.3285C67.9346 26.9151 67.8017 26.5061 67.654 26.1024L62.0194 28.1645ZM53.4053 12.0558C49.5689 9.26852 46.5013 7.03471 43.8284 5.50228C41.0944 3.93483 38.5277 2.95095 35.643 2.84512L35.4231 8.84109C36.98 8.8982 38.5786 9.40859 40.8441 10.7075C43.1707 12.0414 45.9367 14.046 49.8786 16.9099L53.4053 12.0558ZM20.1183 16.9099C24.0601 14.046 26.8262 12.0414 29.1528 10.7075C31.4183 9.40859 33.0169 8.8982 34.5738 8.84109L34.3538 2.84512C31.4692 2.95095 28.9024 3.93483 26.1685 5.50228C23.4956 7.03471 20.4279 9.26852 16.5916 12.0558L20.1183 16.9099ZM35.643 2.84512C35.2134 2.82936 34.7834 2.82936 34.3538 2.84512L34.5738 8.84109C34.8568 8.83071 35.1401 8.83071 35.4231 8.84109L35.643 2.84512ZM43.6651 51.974V63.6406H49.6651V51.974H43.6651ZM26.3318 63.6406V51.974H20.3318V63.6406H26.3318ZM34.9984 43.3073C39.7849 43.3073 43.6651 47.1875 43.6651 51.974H49.6651C49.6651 43.8738 43.0986 37.3073 34.9984 37.3073V43.3073ZM34.9984 37.3073C26.8983 37.3073 20.3318 43.8738 20.3318 51.974H26.3318C26.3318 47.1875 30.212 43.3073 34.9984 43.3073V37.3073ZM37.9984 57.8073V51.974H31.9984V57.8073H37.9984ZM34.9984 68.7062C39.9514 68.7062 43.8777 68.7114 47.0259 68.33L46.3043 62.3736C43.6004 62.7011 40.1006 62.7062 34.9984 62.7062V68.7062ZM47.0259 68.33C49.9763 67.9726 52.4972 67.2529 54.7823 65.7175L51.4359 60.7373C50.2011 61.5671 48.693 62.0842 46.3043 62.3736L47.0259 68.33ZM43.6651 63.6406V65.3518H49.6651V63.6406H43.6651ZM34.9984 62.7062C29.8963 62.7062 26.3965 62.7011 23.6925 62.3736L22.971 68.33C26.1191 68.7114 30.0455 68.7062 34.9984 68.7062V62.7062ZM23.6925 62.3736C21.3038 62.0842 19.7958 61.5671 18.561 60.7373L15.2146 65.7175C17.4997 67.2529 20.0206 67.9726 22.971 68.33L23.6925 62.3736ZM20.3318 63.6406V65.3518H26.3318V63.6406H20.3318Z" fill="#BCDBFF"/>
</svg>
