<svg width="94" height="94" viewBox="0 0 94 94" fill="none" xmlns="http://www.w3.org/2000/svg">
<path d="M59.7301 35.2499C59.7301 42.28 54.031 47.9791 47.0009 47.9791V53.8541C57.2757 53.8541 65.6051 45.5247 65.6051 35.2499H59.7301ZM47.0009 47.9791C39.9708 47.9791 34.2717 42.28 34.2717 35.2499H28.3967C28.3967 45.5247 36.7261 53.8541 47.0009 53.8541V47.9791ZM34.2717 35.2499C34.2717 28.2198 39.9708 22.5208 47.0009 22.5208V16.6458C36.7261 16.6458 28.3967 24.9751 28.3967 35.2499H34.2717ZM47.0009 22.5208C54.031 22.5208 59.7301 28.2198 59.7301 35.2499H65.6051C65.6051 24.9751 57.2757 16.6458 47.0009 16.6458V22.5208ZM35.2509 65.6041H58.7509V59.7291H35.2509V65.6041ZM10.7717 46.9999C10.7717 26.9911 26.9921 10.7708 47.0009 10.7708V4.89575C23.7474 4.89575 4.89673 23.7464 4.89673 46.9999H10.7717ZM47.0009 10.7708C67.0097 10.7708 83.2301 26.9911 83.2301 46.9999H89.1051C89.1051 23.7464 70.2544 4.89575 47.0009 4.89575V10.7708ZM83.2301 46.9999C83.2301 57.2745 78.9568 66.546 72.0828 73.1429L76.1507 77.3818C84.1313 69.7229 89.1051 58.9398 89.1051 46.9999H83.2301ZM72.0828 73.1429C65.5704 79.3926 56.7368 83.2291 47.0009 83.2291V89.1041C58.3129 89.1041 68.5883 84.6392 76.1507 77.3818L72.0828 73.1429ZM58.7509 65.6041C64.9237 65.6041 70.0761 70.0008 71.2356 75.8349L76.9979 74.6897C75.3026 66.1596 67.781 59.7291 58.7509 59.7291V65.6041ZM47.0009 83.2291C37.265 83.2291 28.4314 79.3926 21.919 73.1429L17.8511 77.3818C25.4135 84.6392 35.6889 89.1041 47.0009 89.1041V83.2291ZM21.919 73.1429C15.0449 66.546 10.7717 57.2745 10.7717 46.9999H4.89673C4.89673 58.9398 9.87047 69.7229 17.8511 77.3818L21.919 73.1429ZM35.2509 59.7291C26.2208 59.7291 18.6992 66.1596 17.0039 74.6897L22.7662 75.8349C23.9257 70.0008 29.0781 65.6041 35.2509 65.6041V59.7291Z" fill="white"/>
</svg>
