<svg width="70" height="70" viewBox="0 0 70 70" fill="none" xmlns="http://www.w3.org/2000/svg">
<path d="M14.7615 61.3815L16.5248 58.9544L14.7615 61.3815ZM11.5352 58.1552L13.9622 56.3918L11.5352 58.1552ZM58.4648 58.1552L56.0378 56.3918L58.4648 58.1552ZM55.2385 61.3815L53.4752 58.9544L55.2385 61.3815ZM55.2385 8.6185L53.4752 11.0455L55.2385 8.6185ZM58.4648 11.8448L56.0378 13.6081L58.4648 11.8448ZM14.7615 8.6185L16.5248 11.0455L14.7615 8.6185ZM11.5352 11.8448L13.9622 13.6081L11.5352 11.8448ZM23.3333 43.6667C21.6765 43.6667 20.3333 45.0098 20.3333 46.6667C20.3333 48.3235 21.6765 49.6667 23.3333 49.6667V43.6667ZM46.6667 49.6667C48.3235 49.6667 49.6667 48.3235 49.6667 46.6667C49.6667 45.0098 48.3235 43.6667 46.6667 43.6667V49.6667ZM23.3333 32C21.6765 32 20.3333 33.3431 20.3333 35C20.3333 36.6568 21.6765 38 23.3333 38V32ZM32.0833 38C33.7402 38 35.0833 36.6568 35.0833 35C35.0833 33.3431 33.7402 32 32.0833 32V38ZM23.3333 20.3333C21.6765 20.3333 20.3333 21.6765 20.3333 23.3333C20.3333 24.9902 21.6765 26.3333 23.3333 26.3333V20.3333ZM46.6667 26.3333C48.3235 26.3333 49.6667 24.9902 49.6667 23.3333C49.6667 21.6765 48.3235 20.3333 46.6667 20.3333V26.3333ZM58.25 32.0833V37.9167H64.25V32.0833H58.25ZM11.75 37.9167V32.0833H5.75V37.9167H11.75ZM35 61.1667C29.4648 61.1667 25.5544 61.1625 22.5401 60.836C19.582 60.5155 17.8449 59.9135 16.5248 58.9544L12.9981 63.8085C15.5115 65.6346 18.4253 66.4253 21.8939 66.8011C25.3063 67.1708 29.5985 67.1667 35 67.1667V61.1667ZM5.75 37.9167C5.75 43.3182 5.74588 47.6103 6.1156 51.0228C6.4914 54.4914 7.28205 57.4052 9.10812 59.9186L13.9622 56.3918C13.0031 55.0718 12.4012 53.3346 12.0807 50.3765C11.7541 47.3623 11.75 43.4518 11.75 37.9167H5.75ZM16.5248 58.9544C15.5415 58.24 14.6767 57.3752 13.9622 56.3918L9.10812 59.9186C10.1927 61.4113 11.5054 62.724 12.9981 63.8085L16.5248 58.9544ZM58.25 37.9167C58.25 43.4518 58.2459 47.3623 57.9193 50.3765C57.5988 53.3346 56.9969 55.0718 56.0378 56.3918L60.8919 59.9186C62.718 57.4052 63.5086 54.4914 63.8844 51.0228C64.2541 47.6103 64.25 43.3182 64.25 37.9167H58.25ZM35 67.1667C40.4015 67.1667 44.6937 67.1708 48.1061 66.8011C51.5747 66.4253 54.4885 65.6346 57.0019 63.8085L53.4752 58.9544C52.1551 59.9135 50.418 60.5155 47.4599 60.836C44.4456 61.1625 40.5352 61.1667 35 61.1667V67.1667ZM56.0378 56.3918C55.3233 57.3752 54.4585 58.24 53.4752 58.9544L57.0019 63.8085C58.4946 62.724 59.8074 61.4113 60.8919 59.9186L56.0378 56.3918ZM35 8.83333C40.5352 8.83333 44.4456 8.83745 47.4599 9.16402C50.418 9.48451 52.1551 10.0864 53.4752 11.0455L57.0019 6.19145C54.4885 4.36538 51.5747 3.57473 48.1061 3.19893C44.6937 2.82921 40.4015 2.83333 35 2.83333V8.83333ZM64.25 32.0833C64.25 26.6818 64.2541 22.3897 63.8844 18.9772C63.5086 15.5086 62.718 12.5948 60.8919 10.0814L56.0378 13.6081C56.9969 14.9282 57.5988 16.6654 57.9193 19.6235C58.2459 22.6377 58.25 26.5481 58.25 32.0833H64.25ZM53.4752 11.0455C54.4585 11.76 55.3233 12.6248 56.0378 13.6081L60.8919 10.0814C59.8074 8.5887 58.4946 7.27598 57.0019 6.19145L53.4752 11.0455ZM35 2.83333C29.5985 2.83333 25.3063 2.82921 21.8939 3.19893C18.4253 3.57473 15.5115 4.36538 12.9981 6.19145L16.5248 11.0455C17.8449 10.0864 19.582 9.48451 22.5401 9.16402C25.5544 8.83745 29.4648 8.83333 35 8.83333V2.83333ZM11.75 32.0833C11.75 26.5481 11.7541 22.6377 12.0807 19.6235C12.4012 16.6654 13.0031 14.9282 13.9622 13.6081L9.10812 10.0814C7.28205 12.5948 6.4914 15.5086 6.1156 18.9772C5.74588 22.3897 5.75 26.6818 5.75 32.0833H11.75ZM12.9981 6.19145C11.5054 7.27598 10.1927 8.58871 9.10812 10.0814L13.9622 13.6081C14.6767 12.6248 15.5415 11.76 16.5248 11.0455L12.9981 6.19145ZM23.3333 49.6667H46.6667V43.6667H23.3333V49.6667ZM23.3333 38H32.0833V32H23.3333V38ZM23.3333 26.3333H46.6667V20.3333H23.3333V26.3333Z" fill="white"/>
</svg>
