<svg width="70" height="70" viewBox="0 0 70 70" fill="none" xmlns="http://www.w3.org/2000/svg">
<g clip-path="url(#clip0_289_25)">
<path d="M57.5381 50.379C56.3665 49.2074 54.467 49.2074 53.2955 50.379C52.1239 51.5505 52.1239 53.45 53.2954 54.6216L57.5381 50.379ZM64.9618 66.2881C66.1334 67.4597 68.0329 67.4597 69.2044 66.2881C70.376 65.1166 70.376 63.2171 69.2045 62.0455L64.9618 66.2881ZM53.2954 54.6216L64.9618 66.2881L69.2045 62.0455L57.5381 50.379L53.2954 54.6216ZM32.0833 52.4167C19.2426 52.4167 8.83325 42.0073 8.83325 29.1667H2.83325C2.83325 45.321 15.9289 58.4167 32.0833 58.4167V52.4167ZM55.3332 29.1667C55.3332 42.0073 44.9239 52.4167 32.0833 52.4167V58.4167C48.2376 58.4167 61.3332 45.321 61.3332 29.1667H55.3332ZM32.0833 5.91669C44.9239 5.91669 55.3332 16.3261 55.3332 29.1667H61.3332C61.3332 13.0124 48.2376 -0.083313 32.0833 -0.083313V5.91669ZM32.0833 -0.083313C15.9289 -0.083313 2.83325 13.0124 2.83325 29.1667H8.83325C8.83325 16.3261 19.2426 5.91669 32.0833 5.91669V-0.083313Z" fill="black"/>
</g>
<defs>
<clipPath id="clip0_289_25">
<rect width="70" height="70" fill="white"/>
</clipPath>
</defs>
</svg>
