<svg width="60" height="77" viewBox="0 0 60 77" fill="none" xmlns="http://www.w3.org/2000/svg">
<path d="M20 44.3438C21.0183 44.3438 21.8438 43.5183 21.8438 42.5C21.8438 41.4817 21.0183 40.6562 20 40.6562V44.3438ZM40 40.6562C38.9817 40.6562 38.1562 41.4817 38.1562 42.5C38.1562 43.5183 38.9817 44.3438 40 44.3438V40.6562ZM40 15.6562C38.9817 15.6562 38.1562 16.4817 38.1562 17.5C38.1562 18.5183 38.9817 19.3438 40 19.3438V15.6562ZM20 19.3438C21.0183 19.3438 21.8438 18.5183 21.8438 17.5C21.8438 16.4817 21.0183 15.6562 20 15.6562V19.3438ZM20 28.1562C18.9817 28.1562 18.1562 28.9817 18.1562 30C18.1562 31.0183 18.9817 31.8438 20 31.8438V28.1562ZM40 31.8438C41.0183 31.8438 41.8438 31.0183 41.8438 30C41.8438 28.9817 41.0183 28.1562 40 28.1562V31.8438ZM20 40.6562C14.1147 40.6562 9.34375 35.8853 9.34375 30H5.65625C5.65625 37.9218 12.0782 44.3438 20 44.3438V40.6562ZM50.6562 30C50.6562 35.8853 45.8853 40.6562 40 40.6562V44.3438C47.9218 44.3438 54.3438 37.9218 54.3438 30H50.6562ZM40 19.3438C45.8853 19.3438 50.6562 24.1147 50.6562 30H54.3438C54.3438 22.0782 47.9218 15.6562 40 15.6562V19.3438ZM20 15.6562C12.0782 15.6562 5.65625 22.0782 5.65625 30H9.34375C9.34375 24.1147 14.1147 19.3438 20 19.3438V15.6562ZM20 31.8438H40V28.1562H20V31.8438Z" fill="black"/>
</svg>
