<svg width="217" height="126" viewBox="0 0 217 126" fill="none" xmlns="http://www.w3.org/2000/svg">
<path d="M10.76 91.344H14.888L24.744 114H19.112L17.16 109.2H8.36L6.472 114H0.968L10.76 91.344ZM12.68 97.936L9.928 104.976H15.464L12.68 97.936ZM26.8628 98.448H31.2788V100.496H31.3428C31.5348 100.219 31.7801 99.9413 32.0788 99.664C32.3988 99.3653 32.7614 99.0987 33.1667 98.864C33.5934 98.6293 34.0521 98.4373 34.5428 98.288C35.0334 98.1387 35.5561 98.064 36.1108 98.064C37.2628 98.064 38.3081 98.2667 39.2468 98.672C40.1854 99.056 40.9854 99.6107 41.6468 100.336C42.3294 101.04 42.8521 101.883 43.2148 102.864C43.5774 103.845 43.7588 104.923 43.7588 106.096C43.7588 107.184 43.5881 108.229 43.2468 109.232C42.9268 110.213 42.4574 111.088 41.8388 111.856C41.2414 112.624 40.5054 113.243 39.6308 113.712C38.7561 114.16 37.7641 114.384 36.6548 114.384C35.6521 114.384 34.7134 114.235 33.8388 113.936C32.9854 113.616 32.2814 113.083 31.7268 112.336H31.6628V121.296H26.8628V98.448ZM31.2788 106.224C31.2788 107.397 31.6094 108.347 32.2708 109.072C32.9534 109.797 33.9028 110.16 35.1188 110.16C36.3348 110.16 37.2734 109.797 37.9348 109.072C38.6174 108.347 38.9588 107.397 38.9588 106.224C38.9588 105.051 38.6174 104.101 37.9348 103.376C37.2734 102.651 36.3348 102.288 35.1188 102.288C33.9028 102.288 32.9534 102.651 32.2708 103.376C31.6094 104.101 31.2788 105.051 31.2788 106.224ZM47.019 98.448H51.435V100.496H51.499C51.691 100.219 51.9363 99.9413 52.235 99.664C52.555 99.3653 52.9177 99.0987 53.323 98.864C53.7497 98.6293 54.2083 98.4373 54.699 98.288C55.1897 98.1387 55.7123 98.064 56.267 98.064C57.419 98.064 58.4643 98.2667 59.403 98.672C60.3417 99.056 61.1417 99.6107 61.803 100.336C62.4857 101.04 63.0083 101.883 63.371 102.864C63.7337 103.845 63.915 104.923 63.915 106.096C63.915 107.184 63.7443 108.229 63.403 109.232C63.083 110.213 62.6137 111.088 61.995 111.856C61.3977 112.624 60.6617 113.243 59.787 113.712C58.9123 114.16 57.9203 114.384 56.811 114.384C55.8083 114.384 54.8697 114.235 53.995 113.936C53.1417 113.616 52.4377 113.083 51.883 112.336H51.819V121.296H47.019V98.448ZM51.435 106.224C51.435 107.397 51.7657 108.347 52.427 109.072C53.1097 109.797 54.059 110.16 55.275 110.16C56.491 110.16 57.4297 109.797 58.091 109.072C58.7737 108.347 59.115 107.397 59.115 106.224C59.115 105.051 58.7737 104.101 58.091 103.376C57.4297 102.651 56.491 102.288 55.275 102.288C54.059 102.288 53.1097 102.651 52.427 103.376C51.7657 104.101 51.435 105.051 51.435 106.224ZM66.1513 106.224C66.1513 104.987 66.3753 103.867 66.8233 102.864C67.2713 101.861 67.8793 101.008 68.6473 100.304C69.4366 99.5787 70.3539 99.024 71.3993 98.64C72.4659 98.256 73.5966 98.064 74.7913 98.064C75.9859 98.064 77.1059 98.256 78.1513 98.64C79.2179 99.024 80.1353 99.5787 80.9033 100.304C81.6926 101.008 82.3113 101.861 82.7593 102.864C83.2073 103.867 83.4313 104.987 83.4313 106.224C83.4313 107.461 83.2073 108.581 82.7593 109.584C82.3113 110.587 81.6926 111.451 80.9033 112.176C80.1353 112.88 79.2179 113.424 78.1513 113.808C77.1059 114.192 75.9859 114.384 74.7913 114.384C73.5966 114.384 72.4659 114.192 71.3993 113.808C70.3539 113.424 69.4366 112.88 68.6473 112.176C67.8793 111.451 67.2713 110.587 66.8233 109.584C66.3753 108.581 66.1513 107.461 66.1513 106.224ZM70.9513 106.224C70.9513 107.397 71.2819 108.347 71.9433 109.072C72.6259 109.797 73.5753 110.16 74.7913 110.16C76.0073 110.16 76.9459 109.797 77.6073 109.072C78.2899 108.347 78.6313 107.397 78.6313 106.224C78.6313 105.051 78.2899 104.101 77.6073 103.376C76.9459 102.651 76.0073 102.288 74.7913 102.288C73.5753 102.288 72.6259 102.651 71.9433 103.376C71.2819 104.101 70.9513 105.051 70.9513 106.224ZM86.3225 98.448H91.1225V114H86.3225V98.448ZM85.9385 93.552C85.9385 92.784 86.2052 92.1333 86.7385 91.6C87.2932 91.0453 87.9545 90.768 88.7225 90.768C89.4905 90.768 90.1412 91.0453 90.6745 91.6C91.2292 92.1333 91.5065 92.784 91.5065 93.552C91.5065 94.32 91.2292 94.9813 90.6745 95.536C90.1412 96.0693 89.4905 96.336 88.7225 96.336C87.9545 96.336 87.2932 96.0693 86.7385 95.536C86.2052 94.9813 85.9385 94.32 85.9385 93.552ZM94.571 98.448H99.179V100.56H99.243C99.3923 100.261 99.6057 99.9627 99.883 99.664C100.16 99.3653 100.491 99.0987 100.875 98.864C101.259 98.6293 101.696 98.4373 102.187 98.288C102.678 98.1387 103.211 98.064 103.787 98.064C105.003 98.064 105.984 98.256 106.731 98.64C107.478 99.0027 108.054 99.5147 108.459 100.176C108.886 100.837 109.174 101.616 109.323 102.512C109.472 103.408 109.547 104.379 109.547 105.424V114H104.747V106.384C104.747 105.936 104.726 105.477 104.683 105.008C104.662 104.517 104.566 104.069 104.395 103.664C104.246 103.259 104 102.928 103.659 102.672C103.339 102.416 102.87 102.288 102.251 102.288C101.632 102.288 101.131 102.405 100.747 102.64C100.363 102.853 100.064 103.152 99.851 103.536C99.659 103.899 99.531 104.315 99.467 104.784C99.403 105.253 99.371 105.744 99.371 106.256V114H94.571V98.448ZM123.538 102.288H119.314V107.472C119.314 107.899 119.335 108.293 119.378 108.656C119.421 108.997 119.517 109.296 119.666 109.552C119.815 109.808 120.039 110.011 120.338 110.16C120.658 110.288 121.074 110.352 121.586 110.352C121.842 110.352 122.173 110.331 122.578 110.288C123.005 110.224 123.325 110.096 123.538 109.904V113.904C123.005 114.096 122.45 114.224 121.874 114.288C121.298 114.352 120.733 114.384 120.178 114.384C119.367 114.384 118.621 114.299 117.938 114.128C117.255 113.957 116.658 113.691 116.146 113.328C115.634 112.944 115.229 112.453 114.93 111.856C114.653 111.259 114.514 110.533 114.514 109.68V102.288H111.442V98.448H114.514V93.84H119.314V98.448H123.538V102.288ZM125.977 98.448H130.585V100.56H130.649C130.799 100.261 131.012 99.9627 131.289 99.664C131.567 99.3653 131.897 99.0987 132.281 98.864C132.665 98.6293 133.103 98.4373 133.593 98.288C134.084 98.1387 134.617 98.064 135.193 98.064C136.281 98.064 137.241 98.288 138.073 98.736C138.927 99.184 139.567 99.888 139.993 100.848C140.548 99.8453 141.22 99.1307 142.009 98.704C142.799 98.2773 143.769 98.064 144.921 98.064C145.967 98.064 146.841 98.2453 147.545 98.608C148.271 98.9493 148.836 99.4293 149.241 100.048C149.668 100.645 149.967 101.36 150.137 102.192C150.329 103.003 150.425 103.877 150.425 104.816V114H145.625V104.944C145.625 104.219 145.465 103.6 145.145 103.088C144.847 102.555 144.303 102.288 143.513 102.288C142.959 102.288 142.489 102.384 142.105 102.576C141.743 102.747 141.444 102.992 141.209 103.312C140.996 103.632 140.836 104.005 140.729 104.432C140.644 104.859 140.601 105.307 140.601 105.776V114H135.801V105.776C135.801 105.499 135.791 105.157 135.769 104.752C135.748 104.347 135.673 103.963 135.545 103.6C135.417 103.237 135.204 102.928 134.905 102.672C134.628 102.416 134.212 102.288 133.657 102.288C133.039 102.288 132.537 102.405 132.153 102.64C131.769 102.853 131.471 103.152 131.257 103.536C131.065 103.899 130.937 104.315 130.873 104.784C130.809 105.253 130.777 105.744 130.777 106.256V114H125.977V98.448ZM168.541 111.312C167.773 112.293 166.802 113.051 165.629 113.584C164.456 114.117 163.24 114.384 161.981 114.384C160.786 114.384 159.656 114.192 158.589 113.808C157.544 113.424 156.626 112.88 155.837 112.176C155.069 111.451 154.461 110.587 154.013 109.584C153.565 108.581 153.341 107.461 153.341 106.224C153.341 104.987 153.565 103.867 154.013 102.864C154.461 101.861 155.069 101.008 155.837 100.304C156.626 99.5787 157.544 99.024 158.589 98.64C159.656 98.256 160.786 98.064 161.981 98.064C163.09 98.064 164.093 98.256 164.989 98.64C165.906 99.024 166.674 99.5787 167.293 100.304C167.933 101.008 168.424 101.861 168.765 102.864C169.106 103.867 169.277 104.987 169.277 106.224V107.728H158.141C158.333 108.645 158.749 109.381 159.389 109.936C160.029 110.469 160.818 110.736 161.757 110.736C162.546 110.736 163.208 110.565 163.741 110.224C164.296 109.861 164.776 109.403 165.181 108.848L168.541 111.312ZM164.477 104.464C164.498 103.653 164.232 102.96 163.677 102.384C163.122 101.808 162.408 101.52 161.533 101.52C161 101.52 160.53 101.605 160.125 101.776C159.72 101.947 159.368 102.171 159.069 102.448C158.792 102.704 158.568 103.013 158.397 103.376C158.248 103.717 158.162 104.08 158.141 104.464H164.477ZM172.196 98.448H176.804V100.56H176.868C177.017 100.261 177.231 99.9627 177.508 99.664C177.785 99.3653 178.116 99.0987 178.5 98.864C178.884 98.6293 179.321 98.4373 179.812 98.288C180.303 98.1387 180.836 98.064 181.412 98.064C182.628 98.064 183.609 98.256 184.356 98.64C185.103 99.0027 185.679 99.5147 186.084 100.176C186.511 100.837 186.799 101.616 186.948 102.512C187.097 103.408 187.172 104.379 187.172 105.424V114H182.372V106.384C182.372 105.936 182.351 105.477 182.308 105.008C182.287 104.517 182.191 104.069 182.02 103.664C181.871 103.259 181.625 102.928 181.284 102.672C180.964 102.416 180.495 102.288 179.876 102.288C179.257 102.288 178.756 102.405 178.372 102.64C177.988 102.853 177.689 103.152 177.476 103.536C177.284 103.899 177.156 104.315 177.092 104.784C177.028 105.253 176.996 105.744 176.996 106.256V114H172.196V98.448ZM201.163 102.288H196.939V107.472C196.939 107.899 196.96 108.293 197.003 108.656C197.046 108.997 197.142 109.296 197.291 109.552C197.44 109.808 197.664 110.011 197.963 110.16C198.283 110.288 198.699 110.352 199.211 110.352C199.467 110.352 199.798 110.331 200.203 110.288C200.63 110.224 200.95 110.096 201.163 109.904V113.904C200.63 114.096 200.075 114.224 199.499 114.288C198.923 114.352 198.358 114.384 197.803 114.384C196.992 114.384 196.246 114.299 195.563 114.128C194.88 113.957 194.283 113.691 193.771 113.328C193.259 112.944 192.854 112.453 192.555 111.856C192.278 111.259 192.139 110.533 192.139 109.68V102.288H189.067V98.448H192.139V93.84H196.939V98.448H201.163V102.288ZM212.402 103.024C211.698 102.149 210.77 101.712 209.618 101.712C209.213 101.712 208.818 101.808 208.434 102C208.05 102.192 207.858 102.523 207.858 102.992C207.858 103.376 208.05 103.664 208.434 103.856C208.84 104.027 209.341 104.187 209.938 104.336C210.557 104.464 211.208 104.613 211.89 104.784C212.594 104.933 213.245 105.179 213.842 105.52C214.461 105.861 214.962 106.331 215.346 106.928C215.752 107.504 215.954 108.283 215.954 109.264C215.954 110.267 215.73 111.099 215.282 111.76C214.856 112.4 214.301 112.923 213.618 113.328C212.936 113.712 212.168 113.979 211.314 114.128C210.461 114.299 209.618 114.384 208.786 114.384C207.698 114.384 206.6 114.235 205.49 113.936C204.381 113.616 203.442 113.061 202.674 112.272L205.586 109.04C206.034 109.595 206.525 110.021 207.058 110.32C207.613 110.597 208.253 110.736 208.978 110.736C209.533 110.736 210.034 110.661 210.482 110.512C210.93 110.341 211.154 110.043 211.154 109.616C211.154 109.211 210.952 108.912 210.546 108.72C210.162 108.507 209.661 108.336 209.042 108.208C208.445 108.059 207.794 107.909 207.09 107.76C206.408 107.589 205.757 107.344 205.138 107.024C204.541 106.704 204.04 106.256 203.634 105.68C203.25 105.083 203.058 104.293 203.058 103.312C203.058 102.395 203.24 101.605 203.602 100.944C203.986 100.283 204.477 99.7387 205.074 99.312C205.693 98.8853 206.397 98.576 207.186 98.384C207.976 98.1707 208.776 98.064 209.586 98.064C210.61 98.064 211.645 98.2133 212.69 98.512C213.736 98.8107 214.621 99.344 215.346 100.112L212.402 103.024Z" fill="#BCDBFF"/>
<path d="M88.7615 61.3815L90.5248 58.9544L90.5248 58.9544L88.7615 61.3815ZM85.5352 58.1552L87.9622 56.3918L85.5352 58.1552ZM132.465 58.1552L134.892 59.9186L132.465 58.1552ZM129.239 61.3815L127.475 58.9544L127.475 58.9544L129.239 61.3815ZM129.239 14.4518L127.475 16.8789L127.475 16.8789L129.239 14.4518ZM132.465 17.6781L130.038 19.4415L130.038 19.4415L132.465 17.6781ZM88.7615 14.4518L90.5248 16.8789L90.5248 16.8789L88.7615 14.4518ZM85.5352 17.6781L87.9622 19.4415L87.9622 19.4415L85.5352 17.6781ZM130.052 46.8462L129.583 43.8831L129.583 43.8831L130.052 46.8462ZM117.93 58.9687L114.966 58.4994L114.966 58.4994L117.93 58.9687ZM100.25 37.8333C98.5931 37.8333 97.25 39.1765 97.25 40.8333C97.25 42.4902 98.5931 43.8333 100.25 43.8333V37.8333ZM109 43.8333C110.657 43.8333 112 42.4902 112 40.8333C112 39.1765 110.657 37.8333 109 37.8333V43.8333ZM114.75 14.5833C114.75 16.2402 116.093 17.5833 117.75 17.5833C119.407 17.5833 120.75 16.2402 120.75 14.5833H114.75ZM120.75 5.83333C120.75 4.17648 119.407 2.83333 117.75 2.83333C116.093 2.83333 114.75 4.17648 114.75 5.83333H120.75ZM97.25 14.5833C97.25 16.2402 98.5931 17.5833 100.25 17.5833C101.907 17.5833 103.25 16.2402 103.25 14.5833H97.25ZM103.25 5.83333C103.25 4.17648 101.907 2.83333 100.25 2.83333C98.5931 2.83333 97.25 4.17648 97.25 5.83333H103.25ZM82.8344 29.1667L79.8361 29.0639L82.8344 29.1667ZM135.166 29.1667L138.164 29.0639L135.166 29.1667ZM109 61.1667C103.465 61.1667 99.5544 61.1625 96.5401 60.836C93.582 60.5155 91.8449 59.9135 90.5248 58.9544L86.9981 63.8085C89.5115 65.6346 92.4253 66.4253 95.8939 66.8011C99.3063 67.1708 103.598 67.1667 109 67.1667V61.1667ZM79.75 37.9167C79.75 43.3182 79.7459 47.6103 80.1156 51.0228C80.4914 54.4914 81.282 57.4052 83.1081 59.9186L87.9622 56.3918C87.0031 55.0718 86.4012 53.3346 86.0807 50.3765C85.7541 47.3623 85.75 43.4518 85.75 37.9167H79.75ZM90.5248 58.9544C89.5415 58.24 88.6767 57.3752 87.9622 56.3918L83.1081 59.9186C84.1926 61.4113 85.5054 62.724 86.9981 63.8085L90.5248 58.9544ZM130.038 56.3918C129.323 57.3752 128.459 58.24 127.475 58.9544L131.002 63.8085C132.495 62.724 133.807 61.4113 134.892 59.9186L130.038 56.3918ZM127.475 16.8789C128.459 17.5933 129.323 18.4581 130.038 19.4415L134.892 15.9148C133.807 14.422 132.495 13.1093 131.002 12.0248L127.475 16.8789ZM86.9981 12.0248C85.5054 13.1093 84.1927 14.422 83.1081 15.9148L87.9622 19.4415C88.6767 18.4581 89.5415 17.5933 90.5248 16.8789L86.9981 12.0248ZM129.583 43.8831C122.059 45.0748 116.158 50.9756 114.966 58.4994L120.893 59.438C121.678 54.4815 125.565 50.5943 130.521 49.8093L129.583 43.8831ZM100.25 43.8333H109V37.8333H100.25V43.8333ZM135.166 43.6667C132.622 43.6667 130.995 43.6594 129.583 43.8831L130.521 49.8093C131.352 49.6777 132.402 49.6667 135.166 49.6667L135.166 43.6667ZM132.25 37.9167C132.25 41.3426 132.25 44.1636 132.167 46.5639L138.164 46.7694C138.25 44.2444 138.25 41.3094 138.25 37.9167H132.25ZM132.167 46.5639C131.982 51.9641 131.376 54.5496 130.038 56.3918L134.892 59.9186C137.387 56.4839 137.976 52.2436 138.164 46.7694L132.167 46.5639ZM120.75 64.0823C120.75 61.3189 120.761 60.2688 120.893 59.438L114.966 58.4994C114.743 59.9121 114.75 61.5387 114.75 64.0823L120.75 64.0823ZM109 67.1667C112.393 67.1667 115.328 67.167 117.853 67.0805L117.647 61.084C115.247 61.1663 112.426 61.1667 109 61.1667V67.1667ZM117.853 67.0805C123.327 66.893 127.567 66.304 131.002 63.8085L127.475 58.9544C125.633 60.2929 123.047 60.899 117.647 61.084L117.853 67.0805ZM85.75 37.9167C85.75 34.4907 85.7504 31.6697 85.8326 29.2694L79.8361 29.0639C79.7496 31.5889 79.75 34.5239 79.75 37.9167H85.75ZM85.8326 29.2694C86.0176 23.8692 86.6238 21.2837 87.9622 19.4415L83.1081 15.9148C80.6127 19.3494 80.0237 23.5897 79.8361 29.0639L85.8326 29.2694ZM82.8344 32.1667H135.166V26.1667H82.8344V32.1667ZM138.25 37.9167C138.25 34.5239 138.25 31.5889 138.164 29.0639L132.167 29.2694C132.25 31.6697 132.25 34.4907 132.25 37.9167H138.25ZM138.164 29.0639C137.976 23.5897 137.387 19.3494 134.892 15.9148L130.038 19.4415C131.376 21.2837 131.982 23.8692 132.167 29.2694L138.164 29.0639ZM120.75 14.5833V11.751H114.75V14.5833H120.75ZM120.75 11.751V5.83333H114.75V11.751H120.75ZM109 14.6667C112.426 14.6667 115.247 14.667 117.647 14.7493L117.853 8.7528C115.328 8.66629 112.393 8.66667 109 8.66667V14.6667ZM117.647 14.7493C123.047 14.9343 125.633 15.5404 127.475 16.8789L131.002 12.0248C127.567 9.52936 123.327 8.94035 117.853 8.7528L117.647 14.7493ZM103.25 14.5833V11.751H97.25V14.5833H103.25ZM103.25 11.751V5.83333H97.25V11.751H103.25ZM109 8.66667C105.607 8.66667 102.672 8.66629 100.147 8.7528L100.353 14.7493C102.753 14.667 105.574 14.6667 109 14.6667V8.66667ZM100.147 8.7528C94.673 8.94035 90.4328 9.52936 86.9981 12.0248L90.5248 16.8789C92.367 15.5404 94.9526 14.9343 100.353 14.7493L100.147 8.7528Z" fill="#BCDBFF"/>
</svg>
