<svg width="91" height="126" viewBox="0 0 91 126" fill="none" xmlns="http://www.w3.org/2000/svg">
<path d="M19.0687 46.1406L21.9219 45.2136L21.9219 45.2136L19.0687 46.1406ZM15.8297 28.1504L18.715 28.9722L15.8297 28.1504ZM29.3549 14.4828L27.5916 12.0558L27.5916 12.0558L29.3549 14.4828ZM16.1601 27.1335L18.9774 28.1645L16.1601 27.1335ZM27.8878 63.2274L26.2146 65.7174L26.2146 65.7174L27.8878 63.2274ZM27.0227 62.5989L25.1716 64.9597L25.1716 64.9597L27.0227 62.5989ZM72.9282 46.1406L70.075 45.2136L72.9282 46.1406ZM64.9741 62.5989L66.8253 64.9597L66.8253 64.9597L64.9741 62.5989ZM64.1091 63.2274L65.7823 65.7174L64.1091 63.2274ZM62.6419 14.4828L64.4053 12.0558L64.4053 12.0558L62.6419 14.4828ZM75.8367 27.1335L73.0194 28.1645L75.8367 27.1335ZM76.1671 28.1504L73.2819 28.9722L76.1671 28.1504ZM46.5331 5.8431L46.4231 8.84108L46.5331 5.8431ZM45.4638 5.8431L45.5738 8.84108L45.4638 5.8431ZM42.9984 57.8073C42.9984 59.4642 44.3416 60.8073 45.9984 60.8073C47.6553 60.8073 48.9984 59.4642 48.9984 57.8073H42.9984ZM48.9984 51.974C48.9984 50.3171 47.6553 48.974 45.9984 48.974C44.3416 48.974 42.9984 50.3171 42.9984 51.974H48.9984ZM57.6651 65.3518L58.0259 68.33L57.6651 65.3518ZM21.9219 45.2136C20.4162 40.5797 19.3645 37.3296 18.8148 34.7046C18.2796 32.1486 18.2882 30.4705 18.715 28.9722L12.9445 27.3285C12.1537 30.1047 12.2963 32.8499 12.9422 35.9344C13.5737 38.95 14.7502 42.5578 16.2155 47.0677L21.9219 45.2136ZM27.5916 12.0558C23.7552 14.8431 20.6828 17.0703 18.3994 19.1388C16.0638 21.2546 14.3349 23.3917 13.3429 26.1024L18.9774 28.1645C19.5128 26.7014 20.4922 25.3388 22.4276 23.5855C24.4152 21.785 27.1764 19.7738 31.1183 16.9099L27.5916 12.0558ZM18.715 28.9722C18.7925 28.6998 18.8801 28.4304 18.9774 28.1645L13.3429 26.1024C13.1951 26.5061 13.0623 26.9151 12.9445 27.3285L18.715 28.9722ZM16.2155 47.0677C17.6809 51.5776 18.8497 55.1879 20.1113 57.9988C21.4018 60.8738 22.9 63.1785 25.1716 64.9597L28.8739 60.2381C27.6479 59.2768 26.6546 57.9243 25.5852 55.5418C24.487 53.0951 23.4275 49.8475 21.9219 45.2136L16.2155 47.0677ZM29.561 60.7373C29.3259 60.5794 29.0967 60.4129 28.8739 60.2381L25.1716 64.9597C25.5099 65.2249 25.8578 65.4777 26.2146 65.7174L29.561 60.7373ZM70.075 45.2136C68.5693 49.8475 67.5099 53.0951 66.4116 55.5418C65.3423 57.9243 64.349 59.2768 63.123 60.2381L66.8253 64.9597C69.0968 63.1785 70.595 60.8738 71.8855 57.9988C73.1472 55.1879 74.316 51.5776 75.7813 47.0677L70.075 45.2136ZM63.123 60.2381C62.9001 60.4129 62.6709 60.5794 62.4359 60.7373L65.7823 65.7174C66.1391 65.4777 66.487 65.2249 66.8253 64.9597L63.123 60.2381ZM60.8786 16.9099C64.8204 19.7738 67.5816 21.785 69.5692 23.5855C71.5046 25.3388 72.484 26.7014 73.0194 28.1645L78.654 26.1024C77.6619 23.3917 75.933 21.2546 73.5975 19.1388C71.3141 17.0703 68.2416 14.8431 64.4053 12.0558L60.8786 16.9099ZM75.7813 47.0677C77.2467 42.5578 78.4232 38.95 79.0547 35.9344C79.7006 32.8499 79.8431 30.1047 79.0524 27.3285L73.2819 28.9722C73.7087 30.4705 73.7173 32.1486 73.182 34.7047C72.6324 37.3296 71.5806 40.5797 70.075 45.2136L75.7813 47.0677ZM73.0194 28.1645C73.1168 28.4304 73.2043 28.6998 73.2819 28.9722L79.0524 27.3285C78.9346 26.9151 78.8017 26.5061 78.654 26.1024L73.0194 28.1645ZM64.4053 12.0558C60.5689 9.26851 57.5013 7.03471 54.8284 5.50227C52.0944 3.93483 49.5277 2.95094 46.643 2.84512L46.4231 8.84108C47.98 8.8982 49.5786 9.40858 51.8441 10.7075C54.1707 12.0414 56.9367 14.046 60.8786 16.9099L64.4053 12.0558ZM31.1183 16.9099C35.0601 14.046 37.8262 12.0414 40.1528 10.7075C42.4183 9.40858 44.0169 8.8982 45.5738 8.84108L45.3538 2.84512C42.4692 2.95094 39.9024 3.93483 37.1685 5.50227C34.4956 7.03471 31.4279 9.26851 27.5916 12.0558L31.1183 16.9099ZM46.643 2.84512C46.2134 2.82936 45.7834 2.82936 45.3538 2.84512L45.5738 8.84108C45.8568 8.8307 46.1401 8.8307 46.4231 8.84108L46.643 2.84512ZM54.6651 51.974V63.6406H60.6651V51.974H54.6651ZM37.3318 63.6406V51.974H31.3318V63.6406H37.3318ZM45.9984 43.3073C50.7849 43.3073 54.6651 47.1875 54.6651 51.974H60.6651C60.6651 43.8738 54.0986 37.3073 45.9984 37.3073V43.3073ZM45.9984 37.3073C37.8983 37.3073 31.3318 43.8738 31.3318 51.974H37.3318C37.3318 47.1875 41.212 43.3073 45.9984 43.3073V37.3073ZM48.9984 57.8073V51.974H42.9984V57.8073H48.9984ZM45.9984 68.7062C50.9514 68.7062 54.8777 68.7114 58.0259 68.33L57.3043 62.3736C54.6004 62.7011 51.1006 62.7062 45.9984 62.7062V68.7062ZM58.0259 68.33C60.9763 67.9726 63.4972 67.2529 65.7823 65.7174L62.4359 60.7373C61.2011 61.5671 59.693 62.0842 57.3043 62.3736L58.0259 68.33ZM54.6651 63.6406V65.3518H60.6651V63.6406H54.6651ZM45.9984 62.7062C40.8963 62.7062 37.3965 62.7011 34.6925 62.3736L33.971 68.33C37.1191 68.7114 41.0455 68.7062 45.9984 68.7062V62.7062ZM34.6925 62.3736C32.3038 62.0842 30.7958 61.5671 29.561 60.7373L26.2146 65.7174C28.4997 67.2529 31.0206 67.9726 33.971 68.33L34.6925 62.3736ZM31.3318 63.6406V65.3518H37.3318V63.6406H31.3318Z" fill="white"/>
<path d="M2.304 91.344H7.296V99.792H16.992V91.344H21.984V114H16.992V104.208H7.296V114H2.304V91.344ZM25.4013 106.224C25.4013 104.987 25.6253 103.867 26.0733 102.864C26.5213 101.861 27.1293 101.008 27.8973 100.304C28.6866 99.5787 29.6039 99.024 30.6493 98.64C31.7159 98.256 32.8466 98.064 34.0413 98.064C35.2359 98.064 36.3559 98.256 37.4013 98.64C38.4679 99.024 39.3853 99.5787 40.1533 100.304C40.9426 101.008 41.5613 101.861 42.0093 102.864C42.4573 103.867 42.6813 104.987 42.6813 106.224C42.6813 107.461 42.4573 108.581 42.0093 109.584C41.5613 110.587 40.9426 111.451 40.1533 112.176C39.3853 112.88 38.4679 113.424 37.4013 113.808C36.3559 114.192 35.2359 114.384 34.0413 114.384C32.8466 114.384 31.7159 114.192 30.6493 113.808C29.6039 113.424 28.6866 112.88 27.8973 112.176C27.1293 111.451 26.5213 110.587 26.0733 109.584C25.6253 108.581 25.4013 107.461 25.4013 106.224ZM30.2013 106.224C30.2013 107.397 30.5319 108.347 31.1933 109.072C31.8759 109.797 32.8253 110.16 34.0413 110.16C35.2573 110.16 36.1959 109.797 36.8573 109.072C37.5399 108.347 37.8813 107.397 37.8813 106.224C37.8813 105.051 37.5399 104.101 36.8573 103.376C36.1959 102.651 35.2573 102.288 34.0413 102.288C32.8253 102.288 31.8759 102.651 31.1933 103.376C30.5319 104.101 30.2013 105.051 30.2013 106.224ZM45.5085 98.448H50.1165V100.56H50.1805C50.3298 100.261 50.5432 99.9627 50.8205 99.664C51.0978 99.3653 51.4285 99.0987 51.8125 98.864C52.1965 98.6293 52.6338 98.4373 53.1245 98.288C53.6152 98.1387 54.1485 98.064 54.7245 98.064C55.8125 98.064 56.7725 98.288 57.6045 98.736C58.4578 99.184 59.0978 99.888 59.5245 100.848C60.0792 99.8453 60.7512 99.1307 61.5405 98.704C62.3298 98.2773 63.3005 98.064 64.4525 98.064C65.4978 98.064 66.3725 98.2453 67.0765 98.608C67.8018 98.9493 68.3672 99.4293 68.7725 100.048C69.1992 100.645 69.4978 101.36 69.6685 102.192C69.8605 103.003 69.9565 103.877 69.9565 104.816V114H65.1565V104.944C65.1565 104.219 64.9965 103.6 64.6765 103.088C64.3778 102.555 63.8338 102.288 63.0445 102.288C62.4898 102.288 62.0205 102.384 61.6365 102.576C61.2738 102.747 60.9752 102.992 60.7405 103.312C60.5272 103.632 60.3672 104.005 60.2605 104.432C60.1752 104.859 60.1325 105.307 60.1325 105.776V114H55.3325V105.776C55.3325 105.499 55.3218 105.157 55.3005 104.752C55.2792 104.347 55.2045 103.963 55.0765 103.6C54.9485 103.237 54.7352 102.928 54.4365 102.672C54.1592 102.416 53.7432 102.288 53.1885 102.288C52.5698 102.288 52.0685 102.405 51.6845 102.64C51.3005 102.853 51.0018 103.152 50.7885 103.536C50.5965 103.899 50.4685 104.315 50.4045 104.784C50.3405 105.253 50.3085 105.744 50.3085 106.256V114H45.5085V98.448ZM88.0723 111.312C87.3043 112.293 86.3336 113.051 85.1603 113.584C83.9869 114.117 82.7709 114.384 81.5123 114.384C80.3176 114.384 79.1869 114.192 78.1203 113.808C77.0749 113.424 76.1576 112.88 75.3683 112.176C74.6003 111.451 73.9923 110.587 73.5443 109.584C73.0963 108.581 72.8723 107.461 72.8723 106.224C72.8723 104.987 73.0963 103.867 73.5443 102.864C73.9923 101.861 74.6003 101.008 75.3683 100.304C76.1576 99.5787 77.0749 99.024 78.1203 98.64C79.1869 98.256 80.3176 98.064 81.5123 98.064C82.6216 98.064 83.6243 98.256 84.5203 98.64C85.4376 99.024 86.2056 99.5787 86.8243 100.304C87.4643 101.008 87.9549 101.861 88.2963 102.864C88.6376 103.867 88.8083 104.987 88.8083 106.224V107.728H77.6723C77.8643 108.645 78.2803 109.381 78.9203 109.936C79.5603 110.469 80.3496 110.736 81.2883 110.736C82.0776 110.736 82.7389 110.565 83.2723 110.224C83.8269 109.861 84.3069 109.403 84.7123 108.848L88.0723 111.312ZM84.0083 104.464C84.0296 103.653 83.7629 102.96 83.2083 102.384C82.6536 101.808 81.9389 101.52 81.0642 101.52C80.5309 101.52 80.0616 101.605 79.6562 101.776C79.2509 101.947 78.8989 102.171 78.6003 102.448C78.3229 102.704 78.0989 103.013 77.9283 103.376C77.7789 103.717 77.6936 104.08 77.6723 104.464H84.0083Z" fill="white"/>
</svg>
