<svg width="138" height="126" viewBox="0 0 138 126" fill="none" xmlns="http://www.w3.org/2000/svg">
<path d="M2.304 91.344H9.856L15.072 106.128H15.136L20.384 91.344H27.904V114H22.912V96.624H22.848L16.896 114H13.088L7.36 96.624H7.296V114H2.304V91.344ZM46.6348 111.312C45.8668 112.293 44.8961 113.051 43.7228 113.584C42.5494 114.117 41.3334 114.384 40.0748 114.384C38.8801 114.384 37.7494 114.192 36.6828 113.808C35.6374 113.424 34.7201 112.88 33.9308 112.176C33.1628 111.451 32.5548 110.587 32.1068 109.584C31.6588 108.581 31.4348 107.461 31.4348 106.224C31.4348 104.987 31.6588 103.867 32.1068 102.864C32.5548 101.861 33.1628 101.008 33.9308 100.304C34.7201 99.5787 35.6374 99.024 36.6828 98.64C37.7494 98.256 38.8801 98.064 40.0748 98.064C41.1841 98.064 42.1868 98.256 43.0828 98.64C44.0001 99.024 44.7681 99.5787 45.3868 100.304C46.0268 101.008 46.5174 101.861 46.8588 102.864C47.2001 103.867 47.3708 104.987 47.3708 106.224V107.728H36.2348C36.4268 108.645 36.8428 109.381 37.4828 109.936C38.1228 110.469 38.9121 110.736 39.8508 110.736C40.6401 110.736 41.3014 110.565 41.8348 110.224C42.3894 109.861 42.8694 109.403 43.2748 108.848L46.6348 111.312ZM42.5708 104.464C42.5921 103.653 42.3254 102.96 41.7708 102.384C41.2161 101.808 40.5014 101.52 39.6267 101.52C39.0934 101.52 38.6241 101.605 38.2188 101.776C37.8134 101.947 37.4614 102.171 37.1628 102.448C36.8854 102.704 36.6614 103.013 36.4908 103.376C36.3414 103.717 36.2561 104.08 36.2348 104.464H42.5708ZM66.6098 114H62.1938V111.952H62.1298C61.9378 112.229 61.6818 112.517 61.3618 112.816C61.0631 113.093 60.7004 113.349 60.2738 113.584C59.8684 113.819 59.4098 114.011 58.8978 114.16C58.4071 114.309 57.8951 114.384 57.3618 114.384C56.2098 114.384 55.1644 114.192 54.2258 113.808C53.2871 113.403 52.4764 112.848 51.7938 112.144C51.1324 111.419 50.6204 110.565 50.2578 109.584C49.8951 108.603 49.7138 107.525 49.7138 106.352C49.7138 105.264 49.8738 104.229 50.1938 103.248C50.5351 102.245 51.0044 101.36 51.6018 100.592C52.2204 99.824 52.9671 99.216 53.8418 98.768C54.7164 98.2987 55.7084 98.064 56.8177 98.064C57.8204 98.064 58.7484 98.224 59.6018 98.544C60.4764 98.8427 61.1911 99.3653 61.7458 100.112H61.8098V89.808H66.6098V114ZM62.1938 106.224C62.1938 105.051 61.8524 104.101 61.1698 103.376C60.5084 102.651 59.5698 102.288 58.3538 102.288C57.1378 102.288 56.1884 102.651 55.5058 103.376C54.8444 104.101 54.5138 105.051 54.5138 106.224C54.5138 107.397 54.8444 108.347 55.5058 109.072C56.1884 109.797 57.1378 110.16 58.3538 110.16C59.5698 110.16 60.5084 109.797 61.1698 109.072C61.8524 108.347 62.1938 107.397 62.1938 106.224ZM70.51 98.448H75.31V114H70.51V98.448ZM70.126 93.552C70.126 92.784 70.3927 92.1333 70.926 91.6C71.4807 91.0453 72.142 90.768 72.91 90.768C73.678 90.768 74.3287 91.0453 74.862 91.6C75.4167 92.1333 75.694 92.784 75.694 93.552C75.694 94.32 75.4167 94.9813 74.862 95.536C74.3287 96.0693 73.678 96.336 72.91 96.336C72.142 96.336 71.4807 96.0693 70.926 95.536C70.3927 94.9813 70.126 94.32 70.126 93.552ZM89.2865 103.472C89.0518 103.131 88.7212 102.853 88.2945 102.64C87.8678 102.405 87.4092 102.288 86.9185 102.288C85.7025 102.288 84.7532 102.651 84.0705 103.376C83.4092 104.101 83.0785 105.051 83.0785 106.224C83.0785 107.397 83.4092 108.347 84.0705 109.072C84.7532 109.797 85.7025 110.16 86.9185 110.16C87.4518 110.16 87.9105 110.043 88.2945 109.808C88.6785 109.573 89.0092 109.296 89.2865 108.976L92.4545 112.304C91.7078 113.072 90.8225 113.616 89.7985 113.936C88.7958 114.235 87.8358 114.384 86.9185 114.384C85.7238 114.384 84.5932 114.192 83.5265 113.808C82.4812 113.424 81.5638 112.88 80.7745 112.176C80.0065 111.451 79.3985 110.587 78.9505 109.584C78.5025 108.581 78.2785 107.461 78.2785 106.224C78.2785 104.987 78.5025 103.867 78.9505 102.864C79.3985 101.861 80.0065 101.008 80.7745 100.304C81.5638 99.5787 82.4812 99.024 83.5265 98.64C84.5932 98.256 85.7238 98.064 86.9185 98.064C87.8358 98.064 88.7958 98.224 89.7985 98.544C90.8225 98.8427 91.7078 99.376 92.4545 100.144L89.2865 103.472ZM94.26 98.448H99.06V114H94.26V98.448ZM93.876 93.552C93.876 92.784 94.1427 92.1333 94.676 91.6C95.2307 91.0453 95.892 90.768 96.66 90.768C97.428 90.768 98.0787 91.0453 98.612 91.6C99.1667 92.1333 99.444 92.784 99.444 93.552C99.444 94.32 99.1667 94.9813 98.612 95.536C98.0787 96.0693 97.428 96.336 96.66 96.336C95.892 96.336 95.2307 96.0693 94.676 95.536C94.1427 94.9813 93.876 94.32 93.876 93.552ZM102.509 98.448H107.117V100.56H107.181C107.33 100.261 107.543 99.9627 107.821 99.664C108.098 99.3653 108.429 99.0987 108.812 98.864C109.197 98.6293 109.634 98.4373 110.125 98.288C110.615 98.1387 111.149 98.064 111.725 98.064C112.941 98.064 113.922 98.256 114.669 98.64C115.415 99.0027 115.991 99.5147 116.397 100.176C116.823 100.837 117.111 101.616 117.26 102.512C117.41 103.408 117.485 104.379 117.485 105.424V114H112.685V106.384C112.685 105.936 112.663 105.477 112.621 105.008C112.599 104.517 112.503 104.069 112.333 103.664C112.183 103.259 111.938 102.928 111.597 102.672C111.277 102.416 110.807 102.288 110.189 102.288C109.57 102.288 109.069 102.405 108.685 102.64C108.301 102.853 108.002 103.152 107.789 103.536C107.597 103.899 107.469 104.315 107.405 104.784C107.341 105.253 107.309 105.744 107.309 106.256V114H102.509V98.448ZM135.604 111.312C134.836 112.293 133.865 113.051 132.692 113.584C131.518 114.117 130.302 114.384 129.044 114.384C127.849 114.384 126.718 114.192 125.652 113.808C124.606 113.424 123.689 112.88 122.9 112.176C122.132 111.451 121.524 110.587 121.076 109.584C120.628 108.581 120.404 107.461 120.404 106.224C120.404 104.987 120.628 103.867 121.076 102.864C121.524 101.861 122.132 101.008 122.9 100.304C123.689 99.5787 124.606 99.024 125.652 98.64C126.718 98.256 127.849 98.064 129.044 98.064C130.153 98.064 131.156 98.256 132.052 98.64C132.969 99.024 133.737 99.5787 134.356 100.304C134.996 101.008 135.486 101.861 135.828 102.864C136.169 103.867 136.34 104.987 136.34 106.224V107.728H125.204C125.396 108.645 125.812 109.381 126.452 109.936C127.092 110.469 127.881 110.736 128.82 110.736C129.609 110.736 130.27 110.565 130.804 110.224C131.358 109.861 131.838 109.403 132.244 108.848L135.604 111.312ZM131.54 104.464C131.561 103.653 131.294 102.96 130.74 102.384C130.185 101.808 129.47 101.52 128.595 101.52C128.062 101.52 127.593 101.605 127.188 101.776C126.782 101.947 126.43 102.171 126.132 102.448C125.854 102.704 125.63 103.013 125.46 103.376C125.31 103.717 125.225 104.08 125.204 104.464H131.54Z" fill="#8D8D8D"/>
<g clip-path="url(#clip0_241_119)">
<rect x="78.8748" y="2.23345" width="29" height="61.6667" rx="14.5" transform="rotate(41.2279 78.8748 2.23345)" stroke="#8D8D8D" stroke-width="6"/>
<path d="M58 26.5L79 45.5" stroke="#8D8D8D" stroke-width="6"/>
<path d="M71.5 25.5L77 19" stroke="#8D8D8D" stroke-width="3" stroke-linecap="round"/>
</g>
<defs>
<clipPath id="clip0_241_119">
<rect width="70" height="70" fill="white" transform="translate(34)"/>
</clipPath>
</defs>
</svg>
