<svg width="124" height="126" viewBox="0 0 124 126" fill="none" xmlns="http://www.w3.org/2000/svg">
<path d="M2.304 91.344H10.72C11.8933 91.344 13.0027 91.4507 14.048 91.664C15.0933 91.8773 16 92.2507 16.768 92.784C17.5573 93.296 18.176 94 18.624 94.896C19.0933 95.7707 19.328 96.88 19.328 98.224C19.328 99.5467 19.1147 100.656 18.688 101.552C18.2613 102.448 17.6747 103.163 16.928 103.696C16.1813 104.229 15.296 104.613 14.272 104.848C13.248 105.061 12.1387 105.168 10.944 105.168H7.296V114H2.304V91.344ZM7.296 100.944H10.624C11.072 100.944 11.4987 100.901 11.904 100.816C12.3307 100.731 12.704 100.592 13.024 100.4C13.3653 100.187 13.632 99.9093 13.824 99.568C14.0373 99.2053 14.144 98.7573 14.144 98.224C14.144 97.648 14.0053 97.1893 13.728 96.848C13.472 96.4853 13.1307 96.208 12.704 96.016C12.2987 95.824 11.84 95.7067 11.328 95.664C10.816 95.6 10.3253 95.568 9.856 95.568H7.296V100.944ZM31.6123 112.048H31.5483C31.0149 112.88 30.3003 113.477 29.4043 113.84C28.5296 114.203 27.6016 114.384 26.6203 114.384C25.8949 114.384 25.1909 114.277 24.5083 114.064C23.8469 113.872 23.2603 113.573 22.7483 113.168C22.2363 112.763 21.8309 112.261 21.5323 111.664C21.2336 111.067 21.0843 110.373 21.0843 109.584C21.0843 108.688 21.2443 107.931 21.5643 107.312C21.9056 106.693 22.3536 106.181 22.9083 105.776C23.4843 105.371 24.1349 105.061 24.8602 104.848C25.5856 104.613 26.3323 104.443 27.1003 104.336C27.8896 104.229 28.6683 104.165 29.4363 104.144C30.2256 104.123 30.9509 104.112 31.6123 104.112C31.6123 103.259 31.3029 102.587 30.6843 102.096C30.0869 101.584 29.3723 101.328 28.5403 101.328C27.7509 101.328 27.0256 101.499 26.3643 101.84C25.7243 102.16 25.1483 102.608 24.6363 103.184L22.0763 100.56C22.9723 99.728 24.0176 99.1093 25.2123 98.704C26.4069 98.2773 27.6443 98.064 28.9243 98.064C30.3323 98.064 31.4843 98.2453 32.3803 98.608C33.2976 98.9493 34.0229 99.4613 34.5563 100.144C35.1109 100.827 35.4949 101.669 35.7083 102.672C35.9216 103.653 36.0283 104.795 36.0283 106.096V114H31.6123V112.048ZM30.4283 107.184C30.0656 107.184 29.6069 107.205 29.0523 107.248C28.5189 107.269 27.9963 107.355 27.4843 107.504C26.9936 107.653 26.5669 107.877 26.2043 108.176C25.8629 108.475 25.6923 108.891 25.6923 109.424C25.6923 110 25.9376 110.427 26.4283 110.704C26.9189 110.981 27.4309 111.12 27.9643 111.12C28.4336 111.12 28.8816 111.056 29.3083 110.928C29.7563 110.8 30.1509 110.619 30.4923 110.384C30.8336 110.149 31.1003 109.851 31.2923 109.488C31.5056 109.125 31.6123 108.699 31.6123 108.208V107.184H30.4283ZM49.6318 102.288H45.4078V107.472C45.4078 107.899 45.4291 108.293 45.4718 108.656C45.5144 108.997 45.6104 109.296 45.7598 109.552C45.9091 109.808 46.1331 110.011 46.4318 110.16C46.7518 110.288 47.1678 110.352 47.6798 110.352C47.9358 110.352 48.2664 110.331 48.6718 110.288C49.0984 110.224 49.4184 110.096 49.6318 109.904V113.904C49.0984 114.096 48.5438 114.224 47.9678 114.288C47.3918 114.352 46.8264 114.384 46.2718 114.384C45.4611 114.384 44.7144 114.299 44.0318 114.128C43.3491 113.957 42.7518 113.691 42.2398 113.328C41.7278 112.944 41.3224 112.453 41.0238 111.856C40.7464 111.259 40.6078 110.533 40.6078 109.68V102.288H37.5358V98.448H40.6078V93.84H45.4078V98.448H49.6318V102.288ZM52.135 98.448H56.935V114H52.135V98.448ZM51.751 93.552C51.751 92.784 52.0177 92.1333 52.551 91.6C53.1057 91.0453 53.767 90.768 54.535 90.768C55.303 90.768 55.9537 91.0453 56.487 91.6C57.0417 92.1333 57.319 92.784 57.319 93.552C57.319 94.32 57.0417 94.9813 56.487 95.536C55.9537 96.0693 55.303 96.336 54.535 96.336C53.767 96.336 53.1057 96.0693 52.551 95.536C52.0177 94.9813 51.751 94.32 51.751 93.552ZM75.1035 111.312C74.3355 112.293 73.3648 113.051 72.1915 113.584C71.0182 114.117 69.8022 114.384 68.5435 114.384C67.3488 114.384 66.2182 114.192 65.1515 113.808C64.1062 113.424 63.1888 112.88 62.3995 112.176C61.6315 111.451 61.0235 110.587 60.5755 109.584C60.1275 108.581 59.9035 107.461 59.9035 106.224C59.9035 104.987 60.1275 103.867 60.5755 102.864C61.0235 101.861 61.6315 101.008 62.3995 100.304C63.1888 99.5787 64.1062 99.024 65.1515 98.64C66.2182 98.256 67.3488 98.064 68.5435 98.064C69.6528 98.064 70.6555 98.256 71.5515 98.64C72.4688 99.024 73.2368 99.5787 73.8555 100.304C74.4955 101.008 74.9862 101.861 75.3275 102.864C75.6688 103.867 75.8395 104.987 75.8395 106.224V107.728H64.7035C64.8955 108.645 65.3115 109.381 65.9515 109.936C66.5915 110.469 67.3808 110.736 68.3195 110.736C69.1088 110.736 69.7702 110.565 70.3035 110.224C70.8582 109.861 71.3382 109.403 71.7435 108.848L75.1035 111.312ZM71.0395 104.464C71.0608 103.653 70.7942 102.96 70.2395 102.384C69.6848 101.808 68.9702 101.52 68.0955 101.52C67.5622 101.52 67.0928 101.605 66.6875 101.776C66.2822 101.947 65.9302 102.171 65.6315 102.448C65.3542 102.704 65.1302 103.013 64.9595 103.376C64.8102 103.717 64.7248 104.08 64.7035 104.464H71.0395ZM78.7585 98.448H83.3665V100.56H83.4305C83.5798 100.261 83.7932 99.9627 84.0705 99.664C84.3478 99.3653 84.6785 99.0987 85.0625 98.864C85.4465 98.6293 85.8838 98.4373 86.3745 98.288C86.8652 98.1387 87.3985 98.064 87.9745 98.064C89.1905 98.064 90.1718 98.256 90.9185 98.64C91.6652 99.0027 92.2412 99.5147 92.6465 100.176C93.0732 100.837 93.3612 101.616 93.5105 102.512C93.6598 103.408 93.7345 104.379 93.7345 105.424V114H88.9345V106.384C88.9345 105.936 88.9132 105.477 88.8705 105.008C88.8492 104.517 88.7532 104.069 88.5825 103.664C88.4332 103.259 88.1878 102.928 87.8465 102.672C87.5265 102.416 87.0572 102.288 86.4385 102.288C85.8198 102.288 85.3185 102.405 84.9345 102.64C84.5505 102.853 84.2518 103.152 84.0385 103.536C83.8465 103.899 83.7185 104.315 83.6545 104.784C83.5905 105.253 83.5585 105.744 83.5585 106.256V114H78.7585V98.448ZM107.726 102.288H103.502V107.472C103.502 107.899 103.523 108.293 103.566 108.656C103.608 108.997 103.704 109.296 103.854 109.552C104.003 109.808 104.227 110.011 104.526 110.16C104.846 110.288 105.262 110.352 105.774 110.352C106.03 110.352 106.36 110.331 106.766 110.288C107.192 110.224 107.512 110.096 107.726 109.904V113.904C107.192 114.096 106.638 114.224 106.062 114.288C105.486 114.352 104.92 114.384 104.366 114.384C103.555 114.384 102.808 114.299 102.126 114.128C101.443 113.957 100.846 113.691 100.334 113.328C99.8215 112.944 99.4162 112.453 99.1175 111.856C98.8402 111.259 98.7015 110.533 98.7015 109.68V102.288H95.6295V98.448H98.7015V93.84H103.502V98.448H107.726V102.288ZM118.965 103.024C118.261 102.149 117.333 101.712 116.181 101.712C115.775 101.712 115.381 101.808 114.997 102C114.613 102.192 114.421 102.523 114.421 102.992C114.421 103.376 114.613 103.664 114.997 103.856C115.402 104.027 115.903 104.187 116.501 104.336C117.119 104.464 117.77 104.613 118.453 104.784C119.157 104.933 119.807 105.179 120.405 105.52C121.023 105.861 121.525 106.331 121.909 106.928C122.314 107.504 122.517 108.283 122.517 109.264C122.517 110.267 122.293 111.099 121.845 111.76C121.418 112.4 120.863 112.923 120.181 113.328C119.498 113.712 118.73 113.979 117.877 114.128C117.023 114.299 116.181 114.384 115.349 114.384C114.261 114.384 113.162 114.235 112.053 113.936C110.943 113.616 110.005 113.061 109.237 112.272L112.149 109.04C112.597 109.595 113.087 110.021 113.621 110.32C114.175 110.597 114.815 110.736 115.541 110.736C116.095 110.736 116.597 110.661 117.045 110.512C117.493 110.341 117.717 110.043 117.717 109.616C117.717 109.211 117.514 108.912 117.109 108.72C116.725 108.507 116.223 108.336 115.605 108.208C115.007 108.059 114.357 107.909 113.653 107.76C112.97 107.589 112.319 107.344 111.701 107.024C111.103 106.704 110.602 106.256 110.197 105.68C109.813 105.083 109.621 104.293 109.621 103.312C109.621 102.395 109.802 101.605 110.165 100.944C110.549 100.283 111.039 99.7387 111.637 99.312C112.255 98.8853 112.959 98.576 113.749 98.384C114.538 98.1707 115.338 98.064 116.149 98.064C117.173 98.064 118.207 98.2133 119.253 98.512C120.298 98.8107 121.183 99.344 121.909 100.112L118.965 103.024Z" fill="white"/>
<path d="M39.7615 61.3815L41.5248 58.9544L39.7615 61.3815ZM36.5352 58.1552L38.9622 56.3918L36.5352 58.1552ZM83.4648 58.1552L81.0378 56.3918L83.4648 58.1552ZM80.2385 61.3815L78.4752 58.9544L80.2385 61.3815ZM80.2385 8.6185L78.4752 11.0455L80.2385 8.6185ZM83.4648 11.8448L81.0378 13.6081L83.4648 11.8448ZM39.7615 8.6185L41.5248 11.0455L39.7615 8.6185ZM36.5352 11.8448L38.9622 13.6081L36.5352 11.8448ZM48.3333 43.6667C46.6765 43.6667 45.3333 45.0098 45.3333 46.6667C45.3333 48.3235 46.6765 49.6667 48.3333 49.6667V43.6667ZM71.6667 49.6667C73.3235 49.6667 74.6667 48.3235 74.6667 46.6667C74.6667 45.0098 73.3235 43.6667 71.6667 43.6667V49.6667ZM48.3333 32C46.6765 32 45.3333 33.3431 45.3333 35C45.3333 36.6568 46.6765 38 48.3333 38V32ZM57.0833 38C58.7402 38 60.0833 36.6568 60.0833 35C60.0833 33.3431 58.7402 32 57.0833 32V38ZM48.3333 20.3333C46.6765 20.3333 45.3333 21.6765 45.3333 23.3333C45.3333 24.9902 46.6765 26.3333 48.3333 26.3333V20.3333ZM71.6667 26.3333C73.3235 26.3333 74.6667 24.9902 74.6667 23.3333C74.6667 21.6765 73.3235 20.3333 71.6667 20.3333V26.3333ZM83.25 32.0833V37.9167H89.25V32.0833H83.25ZM36.75 37.9167V32.0833H30.75V37.9167H36.75ZM60 61.1667C54.4648 61.1667 50.5544 61.1625 47.5401 60.836C44.582 60.5155 42.8449 59.9135 41.5248 58.9544L37.9981 63.8085C40.5115 65.6346 43.4253 66.4253 46.8939 66.8011C50.3063 67.1708 54.5985 67.1667 60 67.1667V61.1667ZM30.75 37.9167C30.75 43.3182 30.7459 47.6103 31.1156 51.0228C31.4914 54.4914 32.282 57.4052 34.1081 59.9186L38.9622 56.3918C38.0031 55.0718 37.4012 53.3346 37.0807 50.3765C36.7541 47.3623 36.75 43.4518 36.75 37.9167H30.75ZM41.5248 58.9544C40.5415 58.24 39.6767 57.3752 38.9622 56.3918L34.1081 59.9186C35.1927 61.4113 36.5054 62.724 37.9981 63.8085L41.5248 58.9544ZM83.25 37.9167C83.25 43.4518 83.2459 47.3623 82.9193 50.3765C82.5988 53.3346 81.9969 55.0718 81.0378 56.3918L85.8919 59.9186C87.718 57.4052 88.5086 54.4914 88.8844 51.0228C89.2541 47.6103 89.25 43.3182 89.25 37.9167H83.25ZM60 67.1667C65.4015 67.1667 69.6937 67.1708 73.1061 66.8011C76.5747 66.4253 79.4885 65.6346 82.0019 63.8085L78.4752 58.9544C77.1551 59.9135 75.418 60.5155 72.4599 60.836C69.4456 61.1625 65.5352 61.1667 60 61.1667V67.1667ZM81.0378 56.3918C80.3233 57.3752 79.4585 58.24 78.4752 58.9544L82.0019 63.8085C83.4946 62.724 84.8074 61.4113 85.8919 59.9186L81.0378 56.3918ZM60 8.83333C65.5352 8.83333 69.4456 8.83745 72.4599 9.16402C75.418 9.48451 77.1551 10.0864 78.4752 11.0455L82.0019 6.19145C79.4885 4.36538 76.5747 3.57473 73.1061 3.19893C69.6937 2.82921 65.4015 2.83333 60 2.83333V8.83333ZM89.25 32.0833C89.25 26.6818 89.2541 22.3897 88.8844 18.9772C88.5086 15.5086 87.718 12.5948 85.8919 10.0814L81.0378 13.6081C81.9969 14.9282 82.5988 16.6654 82.9193 19.6235C83.2459 22.6377 83.25 26.5481 83.25 32.0833H89.25ZM78.4752 11.0455C79.4585 11.76 80.3233 12.6248 81.0378 13.6081L85.8919 10.0814C84.8074 8.5887 83.4946 7.27598 82.0019 6.19145L78.4752 11.0455ZM60 2.83333C54.5985 2.83333 50.3063 2.82921 46.8939 3.19893C43.4253 3.57473 40.5115 4.36538 37.9981 6.19145L41.5248 11.0455C42.8449 10.0864 44.582 9.48451 47.5401 9.16402C50.5544 8.83745 54.4648 8.83333 60 8.83333V2.83333ZM36.75 32.0833C36.75 26.5481 36.7541 22.6377 37.0807 19.6235C37.4012 16.6654 38.0031 14.9282 38.9622 13.6081L34.1081 10.0814C32.282 12.5948 31.4914 15.5086 31.1156 18.9772C30.7459 22.3897 30.75 26.6818 30.75 32.0833H36.75ZM37.9981 6.19145C36.5054 7.27598 35.1927 8.58871 34.1081 10.0814L38.9622 13.6081C39.6767 12.6248 40.5415 11.76 41.5248 11.0455L37.9981 6.19145ZM48.3333 49.6667H71.6667V43.6667H48.3333V49.6667ZM48.3333 38H57.0833V32H48.3333V38ZM48.3333 26.3333H71.6667V20.3333H48.3333V26.3333Z" fill="white"/>
</svg>
