<svg width="120" height="126" viewBox="0 0 120 126" fill="none" xmlns="http://www.w3.org/2000/svg">
<path d="M2.304 91.344H11.072C12.224 91.344 13.312 91.4613 14.336 91.696C15.3813 91.9093 16.288 92.2827 17.056 92.816C17.8453 93.328 18.464 94.032 18.912 94.928C19.3813 95.8027 19.616 96.9013 19.616 98.224C19.616 99.824 19.2 101.189 18.368 102.32C17.536 103.429 16.32 104.133 14.72 104.432L20.48 114H14.496L9.76 104.944H7.296V114H2.304V91.344ZM7.296 100.72H10.24C10.688 100.72 11.1573 100.709 11.648 100.688C12.16 100.645 12.6187 100.549 13.024 100.4C13.4293 100.229 13.76 99.9733 14.016 99.632C14.2933 99.2907 14.432 98.8107 14.432 98.192C14.432 97.616 14.3147 97.1573 14.08 96.816C13.8453 96.4747 13.5467 96.2187 13.184 96.048C12.8213 95.856 12.4053 95.728 11.936 95.664C11.4667 95.6 11.008 95.568 10.56 95.568H7.296V100.72ZM37.166 111.312C36.398 112.293 35.4273 113.051 34.254 113.584C33.0807 114.117 31.8647 114.384 30.606 114.384C29.4113 114.384 28.2807 114.192 27.214 113.808C26.1687 113.424 25.2513 112.88 24.462 112.176C23.694 111.451 23.086 110.587 22.638 109.584C22.19 108.581 21.966 107.461 21.966 106.224C21.966 104.987 22.19 103.867 22.638 102.864C23.086 101.861 23.694 101.008 24.462 100.304C25.2513 99.5787 26.1687 99.024 27.214 98.64C28.2807 98.256 29.4113 98.064 30.606 98.064C31.7153 98.064 32.718 98.256 33.614 98.64C34.5313 99.024 35.2993 99.5787 35.918 100.304C36.558 101.008 37.0487 101.861 37.39 102.864C37.7313 103.867 37.902 104.987 37.902 106.224V107.728H26.766C26.958 108.645 27.374 109.381 28.014 109.936C28.654 110.469 29.4433 110.736 30.382 110.736C31.1713 110.736 31.8327 110.565 32.366 110.224C32.9207 109.861 33.4007 109.403 33.806 108.848L37.166 111.312ZM33.102 104.464C33.1233 103.653 32.8567 102.96 32.302 102.384C31.7473 101.808 31.0327 101.52 30.158 101.52C29.6247 101.52 29.1553 101.605 28.75 101.776C28.3447 101.947 27.9927 102.171 27.694 102.448C27.4167 102.704 27.1927 103.013 27.022 103.376C26.8727 103.717 26.7873 104.08 26.766 104.464H33.102ZM41.269 98.448H45.685V100.496H45.749C45.941 100.219 46.1863 99.9413 46.485 99.664C46.805 99.3653 47.1677 99.0987 47.573 98.864C47.9997 98.6293 48.4583 98.4373 48.949 98.288C49.4397 98.1387 49.9623 98.064 50.517 98.064C51.669 98.064 52.7143 98.2667 53.653 98.672C54.5917 99.056 55.3917 99.6107 56.053 100.336C56.7357 101.04 57.2583 101.883 57.621 102.864C57.9837 103.845 58.165 104.923 58.165 106.096C58.165 107.184 57.9943 108.229 57.653 109.232C57.333 110.213 56.8637 111.088 56.245 111.856C55.6477 112.624 54.9117 113.243 54.037 113.712C53.1623 114.16 52.1703 114.384 51.061 114.384C50.0583 114.384 49.1197 114.235 48.245 113.936C47.3917 113.616 46.6877 113.083 46.133 112.336H46.069V121.296H41.269V98.448ZM45.685 106.224C45.685 107.397 46.0157 108.347 46.677 109.072C47.3597 109.797 48.309 110.16 49.525 110.16C50.741 110.16 51.6797 109.797 52.341 109.072C53.0237 108.347 53.365 107.397 53.365 106.224C53.365 105.051 53.0237 104.101 52.341 103.376C51.6797 102.651 50.741 102.288 49.525 102.288C48.309 102.288 47.3597 102.651 46.677 103.376C46.0157 104.101 45.685 105.051 45.685 106.224ZM60.4013 106.224C60.4013 104.987 60.6253 103.867 61.0733 102.864C61.5213 101.861 62.1293 101.008 62.8973 100.304C63.6866 99.5787 64.6039 99.024 65.6493 98.64C66.7159 98.256 67.8466 98.064 69.0413 98.064C70.2359 98.064 71.3559 98.256 72.4013 98.64C73.4679 99.024 74.3853 99.5787 75.1533 100.304C75.9426 101.008 76.5613 101.861 77.0093 102.864C77.4573 103.867 77.6813 104.987 77.6813 106.224C77.6813 107.461 77.4573 108.581 77.0093 109.584C76.5613 110.587 75.9426 111.451 75.1533 112.176C74.3853 112.88 73.4679 113.424 72.4013 113.808C71.3559 114.192 70.2359 114.384 69.0413 114.384C67.8466 114.384 66.7159 114.192 65.6493 113.808C64.6039 113.424 63.6866 112.88 62.8973 112.176C62.1293 111.451 61.5213 110.587 61.0733 109.584C60.6253 108.581 60.4013 107.461 60.4013 106.224ZM65.2013 106.224C65.2013 107.397 65.5319 108.347 66.1933 109.072C66.8759 109.797 67.8253 110.16 69.0413 110.16C70.2573 110.16 71.1959 109.797 71.8573 109.072C72.5399 108.347 72.8813 107.397 72.8813 106.224C72.8813 105.051 72.5399 104.101 71.8573 103.376C71.1959 102.651 70.2573 102.288 69.0413 102.288C67.8253 102.288 66.8759 102.651 66.1933 103.376C65.5319 104.101 65.2013 105.051 65.2013 106.224ZM80.5085 98.448H85.3085V100.944H85.3725C85.8845 99.984 86.4925 99.2693 87.1965 98.8C87.9005 98.3093 88.7858 98.064 89.8525 98.064C90.1298 98.064 90.4072 98.0747 90.6845 98.096C90.9618 98.1173 91.2178 98.16 91.4525 98.224V102.608C91.1112 102.501 90.7698 102.427 90.4285 102.384C90.1085 102.32 89.7672 102.288 89.4045 102.288C88.4872 102.288 87.7618 102.416 87.2285 102.672C86.6952 102.928 86.2792 103.291 85.9805 103.76C85.7032 104.208 85.5218 104.752 85.4365 105.392C85.3512 106.032 85.3085 106.736 85.3085 107.504V114H80.5085V98.448ZM104.132 102.288H99.9078V107.472C99.9078 107.899 99.9291 108.293 99.9718 108.656C100.014 108.997 100.11 109.296 100.26 109.552C100.409 109.808 100.633 110.011 100.932 110.16C101.252 110.288 101.668 110.352 102.18 110.352C102.436 110.352 102.766 110.331 103.172 110.288C103.598 110.224 103.918 110.096 104.132 109.904V113.904C103.598 114.096 103.044 114.224 102.468 114.288C101.892 114.352 101.326 114.384 100.772 114.384C99.9611 114.384 99.2144 114.299 98.5318 114.128C97.8491 113.957 97.2518 113.691 96.7398 113.328C96.2278 112.944 95.8224 112.453 95.5238 111.856C95.2464 111.259 95.1078 110.533 95.1078 109.68V102.288H92.0358V98.448H95.1078V93.84H99.9078V98.448H104.132V102.288ZM115.371 103.024C114.667 102.149 113.739 101.712 112.587 101.712C112.182 101.712 111.787 101.808 111.403 102C111.019 102.192 110.827 102.523 110.827 102.992C110.827 103.376 111.019 103.664 111.403 103.856C111.808 104.027 112.31 104.187 112.907 104.336C113.526 104.464 114.176 104.613 114.859 104.784C115.563 104.933 116.214 105.179 116.811 105.52C117.43 105.861 117.931 106.331 118.315 106.928C118.72 107.504 118.923 108.283 118.923 109.264C118.923 110.267 118.699 111.099 118.251 111.76C117.824 112.4 117.27 112.923 116.587 113.328C115.904 113.712 115.136 113.979 114.283 114.128C113.43 114.299 112.587 114.384 111.755 114.384C110.667 114.384 109.568 114.235 108.459 113.936C107.35 113.616 106.411 113.061 105.643 112.272L108.555 109.04C109.003 109.595 109.494 110.021 110.027 110.32C110.582 110.597 111.222 110.736 111.947 110.736C112.502 110.736 113.003 110.661 113.451 110.512C113.899 110.341 114.123 110.043 114.123 109.616C114.123 109.211 113.92 108.912 113.515 108.72C113.131 108.507 112.63 108.336 112.011 108.208C111.414 108.059 110.763 107.909 110.059 107.76C109.376 107.589 108.726 107.344 108.107 107.024C107.51 106.704 107.008 106.256 106.603 105.68C106.219 105.083 106.027 104.293 106.027 103.312C106.027 102.395 106.208 101.605 106.571 100.944C106.955 100.283 107.446 99.7387 108.043 99.312C108.662 98.8853 109.366 98.576 110.155 98.384C110.944 98.1707 111.744 98.064 112.555 98.064C113.579 98.064 114.614 98.2133 115.659 98.512C116.704 98.8107 117.59 99.344 118.315 100.112L115.371 103.024Z" fill="#BCDBFF"/>
<path d="M39.7615 61.3815L41.5248 58.9544L39.7615 61.3815ZM36.5352 58.1552L38.9622 56.3918L36.5352 58.1552ZM83.4648 58.1552L81.0378 56.3918L83.4648 58.1552ZM80.2385 61.3815L78.4752 58.9544L80.2385 61.3815ZM80.2385 8.6185L78.4752 11.0456L80.2385 8.6185ZM83.4648 11.8448L81.0378 13.6082L83.4648 11.8448ZM39.7615 8.6185L41.5248 11.0456L39.7615 8.6185ZM36.5352 11.8448L38.9622 13.6082L36.5352 11.8448ZM48.3333 43.6667C46.6765 43.6667 45.3333 45.0098 45.3333 46.6667C45.3333 48.3235 46.6765 49.6667 48.3333 49.6667V43.6667ZM71.6667 49.6667C73.3235 49.6667 74.6667 48.3235 74.6667 46.6667C74.6667 45.0098 73.3235 43.6667 71.6667 43.6667V49.6667ZM48.3333 32C46.6765 32 45.3333 33.3431 45.3333 35C45.3333 36.6569 46.6765 38 48.3333 38V32ZM57.0833 38C58.7402 38 60.0833 36.6569 60.0833 35C60.0833 33.3431 58.7402 32 57.0833 32V38ZM48.3333 20.3333C46.6765 20.3333 45.3333 21.6765 45.3333 23.3333C45.3333 24.9902 46.6765 26.3333 48.3333 26.3333V20.3333ZM71.6667 26.3333C73.3235 26.3333 74.6667 24.9902 74.6667 23.3333C74.6667 21.6765 73.3235 20.3333 71.6667 20.3333V26.3333ZM83.25 32.0833V37.9167H89.25V32.0833H83.25ZM36.75 37.9167V32.0833H30.75V37.9167H36.75ZM60 61.1667C54.4648 61.1667 50.5544 61.1625 47.5401 60.836C44.582 60.5155 42.8449 59.9135 41.5248 58.9544L37.9981 63.8085C40.5115 65.6346 43.4253 66.4253 46.8939 66.8011C50.3063 67.1708 54.5985 67.1667 60 67.1667V61.1667ZM30.75 37.9167C30.75 43.3182 30.7459 47.6103 31.1156 51.0228C31.4914 54.4914 32.282 57.4052 34.1081 59.9186L38.9622 56.3918C38.0031 55.0718 37.4012 53.3346 37.0807 50.3765C36.7541 47.3623 36.75 43.4518 36.75 37.9167H30.75ZM41.5248 58.9544C40.5415 58.24 39.6767 57.3752 38.9622 56.3918L34.1081 59.9186C35.1927 61.4113 36.5054 62.724 37.9981 63.8085L41.5248 58.9544ZM83.25 37.9167C83.25 43.4518 83.2459 47.3623 82.9193 50.3765C82.5988 53.3346 81.9969 55.0718 81.0378 56.3918L85.8919 59.9186C87.718 57.4052 88.5086 54.4914 88.8844 51.0228C89.2541 47.6103 89.25 43.3182 89.25 37.9167H83.25ZM60 67.1667C65.4015 67.1667 69.6937 67.1708 73.1061 66.8011C76.5747 66.4253 79.4885 65.6346 82.0019 63.8085L78.4752 58.9544C77.1551 59.9135 75.418 60.5155 72.4599 60.836C69.4456 61.1625 65.5352 61.1667 60 61.1667V67.1667ZM81.0378 56.3918C80.3233 57.3752 79.4585 58.24 78.4752 58.9544L82.0019 63.8085C83.4946 62.724 84.8074 61.4113 85.8919 59.9186L81.0378 56.3918ZM60 8.83333C65.5352 8.83333 69.4456 8.83745 72.4599 9.16402C75.418 9.48452 77.1551 10.0865 78.4752 11.0456L82.0019 6.19145C79.4885 4.36538 76.5747 3.57473 73.1061 3.19893C69.6937 2.82921 65.4015 2.83333 60 2.83333V8.83333ZM89.25 32.0833C89.25 26.6818 89.2541 22.3897 88.8844 18.9772C88.5086 15.5086 87.718 12.5948 85.8919 10.0814L81.0378 13.6082C81.9969 14.9282 82.5988 16.6654 82.9193 19.6235C83.2459 22.6377 83.25 26.5481 83.25 32.0833H89.25ZM78.4752 11.0456C79.4585 11.76 80.3233 12.6248 81.0378 13.6082L85.8919 10.0814C84.8074 8.58871 83.4946 7.27598 82.0019 6.19145L78.4752 11.0456ZM60 2.83333C54.5985 2.83333 50.3063 2.82921 46.8939 3.19893C43.4253 3.57473 40.5115 4.36538 37.9981 6.19145L41.5248 11.0456C42.8449 10.0865 44.582 9.48452 47.5401 9.16402C50.5544 8.83745 54.4648 8.83333 60 8.83333V2.83333ZM36.75 32.0833C36.75 26.5481 36.7541 22.6377 37.0807 19.6235C37.4012 16.6654 38.0031 14.9282 38.9622 13.6082L34.1081 10.0814C32.282 12.5948 31.4914 15.5086 31.1156 18.9772C30.7459 22.3897 30.75 26.6818 30.75 32.0833H36.75ZM37.9981 6.19145C36.5054 7.27598 35.1927 8.58871 34.1081 10.0814L38.9622 13.6082C39.6767 12.6248 40.5415 11.76 41.5248 11.0456L37.9981 6.19145ZM48.3333 49.6667H71.6667V43.6667H48.3333V49.6667ZM48.3333 38H57.0833V32H48.3333V38ZM48.3333 26.3333H71.6667V20.3333H48.3333V26.3333Z" fill="#BCDBFF"/>
</svg>
